M48
; DRILL file {KiCad 9.0.2} date 2025-05-26T17:14:41+0100
; FORMAT={-:-/ absolute / metric / decimal}
; #@! TF.CreationDate,2025-05-26T17:14:41+01:00
; #@! TF.GenerationSoftware,Kicad,Pcbnew,9.0.2
; #@! TF.FileFunction,Plated,1,2,PTH
FMAT,2
METRIC
; #@! TA.AperFunction,Plated,PTH,ViaDrill
T1C0.250
; #@! TA.AperFunction,Plated,PTH,ViaDrill
T2C0.300
; #@! TA.AperFunction,Plated,PTH,ComponentDrill
T3C0.750
; #@! TA.AperFunction,Plated,PTH,ComponentDrill
T4C0.889
; #@! TA.AperFunction,Plated,PTH,ComponentDrill
T5C0.900
; #@! TA.AperFunction,Plated,PTH,ComponentDrill
T6C1.000
%
G90
G05
T1
X23.28Y13.73
X25.61Y14.5
X25.86Y6.0
T2
X1.5Y22.5
X1.5Y20.0
X1.5Y17.5
X1.5Y15.0
X1.5Y12.5
X1.5Y10.0
X2.5Y29.75
X2.5Y26.0
X2.5Y7.5
X2.5Y5.0
X2.5Y2.5
X5.0Y32.5
X5.0Y2.0
X8.2Y18.6
X8.4Y14.8
X8.4Y13.6
X9.4Y4.0
X9.8Y15.9
X12.4Y4.0
X12.5Y30.0
X13.0Y21.5
X13.0Y20.25
X13.0Y10.4
X13.75Y18.0
X15.0Y25.0
X15.0Y22.5
X15.0Y14.75
X15.0Y11.75
X15.0Y8.25
X16.71Y17.0
X17.75Y6.75
X18.0Y30.0
X18.0Y27.5
X18.46Y17.25
X18.71Y22.5
X20.0Y4.264
X20.31Y16.6
X20.71Y30.0
X20.71Y27.5
X20.71Y22.5
X21.71Y21.75
X22.71Y6.5
X23.21Y30.0
X23.21Y27.5
X23.21Y20.0
X23.61Y4.0
X23.96Y6.4
X24.11Y11.3
X24.21Y7.4
X25.61Y11.3
X25.71Y30.0
X25.71Y27.5
X25.71Y22.5
X25.71Y20.0
X26.92Y12.01
X27.31Y7.4
X28.11Y12.0
X28.21Y30.0
X28.21Y27.5
X28.71Y14.2
X28.91Y21.7
X28.91Y6.9
X28.96Y18.0
X28.96Y15.25
X30.71Y30.0
X30.71Y27.5
X30.71Y5.6
X30.81Y19.7
X30.81Y1.2
X31.96Y15.25
X31.96Y14.15
X32.11Y17.75
X33.21Y30.0
X33.21Y27.5
X33.21Y17.75
X33.21Y12.5
X33.21Y5.5
X33.31Y1.2
X34.85Y21.61
X34.86Y19.25
X35.71Y30.0
X35.71Y27.5
X35.71Y15.0
X35.71Y12.5
X35.71Y5.5
X35.81Y1.2
X35.96Y21.5
X35.96Y19.25
X38.21Y30.0
X38.21Y27.5
X38.21Y20.0
X38.21Y17.5
X38.21Y11.5
X38.21Y5.5
X38.31Y1.2
X40.71Y20.0
X40.71Y17.5
X40.71Y15.0
X40.71Y11.5
X40.81Y1.2
X43.21Y32.5
X43.21Y11.5
X43.31Y1.2
X43.61Y7.9
X44.56Y22.45
X45.71Y32.5
X45.71Y11.5
X48.21Y32.5
X48.31Y20.75
X48.37Y22.46
X49.71Y19.5
X50.41Y11.8
X50.41Y10.8
X50.71Y32.5
X50.71Y30.0
X52.71Y20.5
X52.71Y18.25
X53.21Y32.5
X53.21Y30.0
X53.71Y6.25
X54.61Y23.0
X54.61Y21.8
X55.71Y32.5
X55.71Y30.0
X55.71Y27.5
X55.96Y11.25
X55.96Y8.25
X58.21Y32.5
X58.21Y30.0
X58.21Y27.5
X58.21Y25.0
X58.21Y1.5
X59.71Y3.5
X60.71Y30.0
X60.71Y27.5
X60.71Y25.0
X61.71Y5.0
X61.96Y7.5
T3
X43.21Y18.0
X43.21Y16.0
T4
X19.61Y24.64
X19.61Y9.4
X22.15Y24.64
X22.15Y9.4
X24.69Y24.64
X24.69Y9.4
X27.23Y24.64
X27.23Y9.4
X29.77Y24.64
X29.77Y9.4
X32.31Y24.64
X32.31Y9.4
X34.85Y24.64
X34.85Y9.4
T5
X7.0Y28.0
X7.0Y6.0
X11.0Y28.0
X11.0Y6.0
X46.21Y28.0
X46.21Y6.0
X50.21Y28.0
X50.21Y6.0
T6
X59.21Y19.5
X59.21Y14.5
M30
