%TF.GenerationSoftware,KiCad,Pcbnew,9.0.2*%
%TF.CreationDate,2025-05-26T17:15:32+01:00*%
%TF.ProjectId,quadcopter_flight_computer_two_layers,71756164-636f-4707-9465-725f666c6967,V3*%
%TF.SameCoordinates,PX510ff40PY6f94740*%
%TF.FileFunction,Copper,L2,Bot*%
%TF.FilePolarity,Positive*%
%FSLAX46Y46*%
G04 Gerber Fmt 4.6, Leading zero omitted, Abs format (unit mm)*
G04 Created by KiCad (PCBNEW 9.0.2) date 2025-05-26 17:15:32*
%MOMM*%
%LPD*%
G01*
G04 APERTURE LIST*
G04 Aperture macros list*
%AMRoundRect*
0 Rectangle with rounded corners*
0 $1 Rounding radius*
0 $2 $3 $4 $5 $6 $7 $8 $9 X,Y pos of 4 corners*
0 Add a 4 corners polygon primitive as box body*
4,1,4,$2,$3,$4,$5,$6,$7,$8,$9,$2,$3,0*
0 Add four circle primitives for the rounded corners*
1,1,$1+$1,$2,$3*
1,1,$1+$1,$4,$5*
1,1,$1+$1,$6,$7*
1,1,$1+$1,$8,$9*
0 Add four rect primitives between the rounded corners*
20,1,$1+$1,$2,$3,$4,$5,0*
20,1,$1+$1,$4,$5,$6,$7,0*
20,1,$1+$1,$6,$7,$8,$9,0*
20,1,$1+$1,$8,$9,$2,$3,0*%
G04 Aperture macros list end*
%TA.AperFunction,ComponentPad*%
%ADD10RoundRect,0.416666X-0.583334X-0.583334X0.583334X-0.583334X0.583334X0.583334X-0.583334X0.583334X0*%
%TD*%
%TA.AperFunction,ComponentPad*%
%ADD11O,2.000000X2.000000*%
%TD*%
%TA.AperFunction,ComponentPad*%
%ADD12RoundRect,0.250000X0.625000X-0.350000X0.625000X0.350000X-0.625000X0.350000X-0.625000X-0.350000X0*%
%TD*%
%TA.AperFunction,ComponentPad*%
%ADD13O,1.750000X1.200000*%
%TD*%
%TA.AperFunction,ComponentPad*%
%ADD14RoundRect,0.624999X0.875001X-0.875001X0.875001X0.875001X-0.875001X0.875001X-0.875001X-0.875001X0*%
%TD*%
%TA.AperFunction,ComponentPad*%
%ADD15C,3.000000*%
%TD*%
%TA.AperFunction,ComponentPad*%
%ADD16C,1.524000*%
%TD*%
%TA.AperFunction,ViaPad*%
%ADD17C,0.700000*%
%TD*%
%TA.AperFunction,ViaPad*%
%ADD18C,0.600000*%
%TD*%
%TA.AperFunction,ViaPad*%
%ADD19C,0.650000*%
%TD*%
%TA.AperFunction,Conductor*%
%ADD20C,0.200000*%
%TD*%
%TA.AperFunction,Conductor*%
%ADD21C,0.300000*%
%TD*%
G04 APERTURE END LIST*
D10*
%TO.P,M3,1,+*%
%TO.N,+BATT*%
X7000000Y6000000D03*
D11*
%TO.P,M3,2,-*%
%TO.N,/MTR_DRAIN3*%
X11000000Y6000000D03*
%TD*%
D12*
%TO.P,J2,1,Pin_1*%
%TO.N,+BATT*%
X43210000Y16000000D03*
D13*
%TO.P,J2,2,Pin_2*%
%TO.N,GND*%
X43210000Y18000000D03*
%TD*%
D10*
%TO.P,M4,1,+*%
%TO.N,+BATT*%
X46210000Y6000000D03*
D11*
%TO.P,M4,2,-*%
%TO.N,/MTR_DRAIN4*%
X50210000Y6000000D03*
%TD*%
D10*
%TO.P,M2,1,+*%
%TO.N,+BATT*%
X46210000Y28000000D03*
D11*
%TO.P,M2,2,-*%
%TO.N,/MTR_DRAIN2*%
X50210000Y28000000D03*
%TD*%
D10*
%TO.P,M1,1,+*%
%TO.N,+BATT*%
X7000000Y28000000D03*
D11*
%TO.P,M1,2,-*%
%TO.N,/MTR_DRAIN1*%
X11000000Y28000000D03*
%TD*%
D14*
%TO.P,J1,1,Pin_1*%
%TO.N,+BATT*%
X59210000Y14500000D03*
D15*
%TO.P,J1,2,Pin_2*%
%TO.N,GND*%
X59210000Y19500000D03*
%TD*%
D16*
%TO.P,U3,1,A0_D0*%
%TO.N,/IMU_INT*%
X34850000Y24640000D03*
%TO.P,U3,2,A1_D1*%
%TO.N,MTR2*%
X32310000Y24640000D03*
%TO.P,U3,3,A2_D2*%
%TO.N,MTR4*%
X29770000Y24640000D03*
%TO.P,U3,4,A3_D3*%
%TO.N,BAR_CS*%
X27230000Y24640000D03*
%TO.P,U3,5,A4_D4_SDA*%
%TO.N,MTR3*%
X24690000Y24640000D03*
%TO.P,U3,6,A5_D5_SCL*%
%TO.N,MTR1*%
X22150000Y24640000D03*
%TO.P,U3,7,D6_TX*%
%TO.N,IMU_CS*%
X19610000Y24640000D03*
%TO.P,U3,8,D7_RX*%
%TO.N,BAR_INT*%
X19610000Y9400000D03*
%TO.P,U3,9,A8_D8_SCK*%
%TO.N,CLK*%
X22150000Y9400000D03*
%TO.P,U3,10,A9_D9_MISO*%
%TO.N,MISO*%
X24690000Y9400000D03*
%TO.P,U3,11,A10_D10_MOSI*%
%TO.N,MOSI*%
X27230000Y9400000D03*
%TO.P,U3,12,3V3*%
%TO.N,+3V3*%
X29770000Y9400000D03*
%TO.P,U3,13,GND*%
%TO.N,GND*%
X32310000Y9400000D03*
%TO.P,U3,14,5V*%
%TO.N,unconnected-(U3-5V-Pad14)*%
X34850000Y9400000D03*
%TD*%
D17*
%TO.N,GND*%
X2500000Y29750000D03*
X20710000Y30000000D03*
D18*
X8200000Y18600000D03*
D17*
X23610000Y4000000D03*
X55710000Y32500000D03*
X35960000Y19250000D03*
D18*
X49710000Y19500000D03*
D17*
X12500000Y30000000D03*
X15000000Y22500000D03*
X2500000Y7500000D03*
X30710000Y27500000D03*
X55710000Y30000000D03*
X20000000Y4264259D03*
X15000000Y25000000D03*
X58210000Y25000000D03*
X58210000Y30000000D03*
X28210000Y30000000D03*
X50710000Y30000000D03*
X32110000Y17750000D03*
X40710000Y15000000D03*
X25710000Y30000000D03*
X50410000Y11800000D03*
X35810000Y1200000D03*
X23210000Y20000000D03*
X40710000Y11500000D03*
X60710000Y30000000D03*
X20710000Y27500000D03*
X54610000Y23000000D03*
X60710000Y27500000D03*
X15000000Y8250000D03*
X60710000Y25000000D03*
X1500000Y22500000D03*
D18*
X55960000Y8250000D03*
X53710000Y6250000D03*
D17*
X38210000Y20000000D03*
X45710000Y32500000D03*
X43210000Y32500000D03*
X13000000Y20250000D03*
D18*
X13000000Y10400000D03*
D17*
X8400000Y13600000D03*
X13750000Y18000000D03*
X2500000Y26000000D03*
D18*
X28910000Y21700000D03*
X12400000Y4000000D03*
D17*
X53210000Y30000000D03*
X2500000Y2500000D03*
X58210000Y32500000D03*
X28710000Y14200000D03*
X43210000Y11500000D03*
X25710000Y20000000D03*
X30710000Y5600000D03*
X15000000Y11750000D03*
X31960000Y14150000D03*
X30710000Y30000000D03*
X61960000Y7500000D03*
X20310000Y16600000D03*
D18*
X9400000Y4000000D03*
D17*
X18000000Y30000000D03*
X38210000Y17500000D03*
X33210000Y5500000D03*
X48210000Y32500000D03*
X40710000Y17500000D03*
X38210000Y30000000D03*
D18*
X52710000Y18250000D03*
D17*
X55710000Y27500000D03*
X5000000Y2000000D03*
X23210000Y27500000D03*
X5000000Y32500000D03*
X33210000Y30000000D03*
X33210000Y12500000D03*
X38210000Y27500000D03*
D18*
X43610000Y7900000D03*
X59710000Y3500000D03*
D17*
X23210000Y30000000D03*
X38210000Y11500000D03*
X2500000Y5000000D03*
X9800000Y15900000D03*
X25710000Y27500000D03*
X35710000Y5500000D03*
X30810000Y1200000D03*
X18000000Y27500000D03*
X35710000Y30000000D03*
X1500000Y20000000D03*
X15000000Y14750000D03*
X38310000Y1200000D03*
D19*
X25860000Y6000000D03*
D18*
X28960000Y18000000D03*
D17*
X48310000Y20750000D03*
X33310000Y1200000D03*
X17750000Y6750000D03*
X1500000Y15000000D03*
X61710000Y5000000D03*
X50710000Y32500000D03*
X58210000Y1500000D03*
X22710000Y6500000D03*
X54610000Y21800000D03*
X35710000Y12500000D03*
X13000000Y21500000D03*
X28110000Y12000000D03*
X35710000Y15000000D03*
X1500000Y10000000D03*
X1500000Y12500000D03*
X24110000Y11300000D03*
X58210000Y27500000D03*
X33210000Y27500000D03*
X21710000Y21750000D03*
X25710000Y22500000D03*
D18*
X52710000Y20500000D03*
D19*
X23280000Y13730000D03*
D17*
X1500000Y17500000D03*
X38210000Y5500000D03*
X35710000Y27500000D03*
X40710000Y20000000D03*
X50410000Y10800000D03*
X8400000Y14800000D03*
D18*
X55960000Y11250000D03*
D17*
X28210000Y27500000D03*
X40810000Y1200000D03*
X35960000Y21500000D03*
X45710000Y11500000D03*
X53210000Y32500000D03*
X43310000Y1200000D03*
D18*
X30810000Y19700000D03*
D19*
X25610000Y14500000D03*
D17*
%TO.N,MTR1*%
X18710000Y22500000D03*
X20710000Y22500000D03*
%TO.N,MTR2*%
X48370000Y22460000D03*
D18*
X44560000Y22450000D03*
D17*
%TO.N,MTR3*%
X16710000Y17000000D03*
X18460000Y17250000D03*
%TO.N,CLK*%
X24210000Y7400000D03*
X27310000Y7400000D03*
%TO.N,MISO*%
X26919620Y12009620D03*
X25610000Y11300000D03*
%TO.N,BAR_CS*%
X23960000Y6400000D03*
X28910000Y6900000D03*
%TO.N,/IMU_INT*%
X33210000Y17750000D03*
X31960000Y15250000D03*
X34860000Y19250000D03*
X28960000Y15250000D03*
X34850000Y21610000D03*
%TD*%
D20*
%TO.N,MTR1*%
X20710000Y22500000D02*
X18710000Y22500000D01*
D21*
%TO.N,MTR2*%
X48460000Y22450000D02*
X44560000Y22450000D01*
D20*
%TO.N,MTR3*%
X18460000Y17250000D02*
X16960000Y17250000D01*
X16960000Y17250000D02*
X16710000Y17000000D01*
%TO.N,CLK*%
X27310000Y7400000D02*
X24210000Y7400000D01*
%TO.N,MISO*%
X26610000Y11700000D02*
X26919620Y12009620D01*
X25610000Y11300000D02*
X26210000Y11300000D01*
X26210000Y11300000D02*
X26610000Y11700000D01*
%TO.N,BAR_CS*%
X28760000Y6900000D02*
X28486000Y6626000D01*
X28910000Y6900000D02*
X28760000Y6900000D01*
X24186000Y6626000D02*
X23960000Y6400000D01*
X28486000Y6626000D02*
X24186000Y6626000D01*
%TO.N,/IMU_INT*%
X34710000Y19250000D02*
X34860000Y19250000D01*
X28960000Y15250000D02*
X31960000Y15250000D01*
X33210000Y17750000D02*
X34710000Y19250000D01*
X34850000Y21610000D02*
X34850000Y24640000D01*
%TD*%
%TA.AperFunction,Conductor*%
%TO.N,GND*%
G36*
X62214126Y33499035D02*
G01*
X62224292Y33497890D01*
X62312873Y33487909D01*
X62329013Y33484225D01*
X62418852Y33452789D01*
X62433781Y33445600D01*
X62514372Y33394962D01*
X62527328Y33384630D01*
X62594629Y33317329D01*
X62604961Y33304373D01*
X62655599Y33223782D01*
X62662788Y33208853D01*
X62694222Y33119020D01*
X62697909Y33102869D01*
X62709035Y33004127D01*
X62709500Y32995841D01*
X62709500Y1004160D01*
X62709035Y995874D01*
X62697909Y897132D01*
X62694221Y880977D01*
X62662788Y791148D01*
X62655599Y776219D01*
X62604961Y695628D01*
X62594629Y682672D01*
X62527328Y615371D01*
X62514372Y605039D01*
X62433781Y554401D01*
X62418852Y547212D01*
X62345258Y521461D01*
X62329021Y515779D01*
X62312868Y512091D01*
X62214127Y500965D01*
X62205841Y500500D01*
X1004159Y500500D01*
X995873Y500965D01*
X897131Y512091D01*
X880980Y515778D01*
X833867Y532264D01*
X791147Y547212D01*
X776218Y554401D01*
X695627Y605039D01*
X682671Y615371D01*
X615370Y682672D01*
X605038Y695628D01*
X554400Y776219D01*
X547211Y791148D01*
X515775Y880987D01*
X512091Y897127D01*
X500965Y995875D01*
X500500Y1004160D01*
X500500Y6658741D01*
X5549500Y6658741D01*
X5549500Y5341274D01*
X5549501Y5341264D01*
X5552372Y5298908D01*
X5597893Y5115864D01*
X5681699Y4946884D01*
X5681700Y4946883D01*
X5681702Y4946880D01*
X5799869Y4799875D01*
X5799874Y4799870D01*
X5889591Y4727753D01*
X5946884Y4681699D01*
X6115864Y4597893D01*
X6298908Y4552372D01*
X6341263Y4549500D01*
X7658736Y4549501D01*
X7701092Y4552372D01*
X7884136Y4597893D01*
X8053116Y4681699D01*
X8200128Y4799872D01*
X8318301Y4946884D01*
X8402107Y5115864D01*
X8447628Y5298908D01*
X8450500Y5341263D01*
X8450499Y6114158D01*
X9549500Y6114158D01*
X9549500Y5885843D01*
X9585215Y5660343D01*
X9585218Y5660330D01*
X9655766Y5443207D01*
X9729289Y5298908D01*
X9759421Y5239772D01*
X9893621Y5055063D01*
X10055063Y4893621D01*
X10239772Y4759421D01*
X10443201Y4655769D01*
X10443203Y4655769D01*
X10443206Y4655767D01*
X10660329Y4585219D01*
X10660335Y4585218D01*
X10660340Y4585216D01*
X10810675Y4561406D01*
X10885842Y4549500D01*
X10885843Y4549500D01*
X11114158Y4549500D01*
X11170532Y4558429D01*
X11339660Y4585216D01*
X11339667Y4585219D01*
X11339670Y4585219D01*
X11556793Y4655767D01*
X11556793Y4655768D01*
X11556799Y4655769D01*
X11760228Y4759421D01*
X11944937Y4893621D01*
X12106379Y5055063D01*
X12240579Y5239772D01*
X12300348Y5357075D01*
X13639500Y5357075D01*
X13639500Y5142926D01*
X13672999Y4931418D01*
X13673002Y4931405D01*
X13739173Y4727753D01*
X13739175Y4727748D01*
X13828534Y4552373D01*
X13836396Y4536943D01*
X13962269Y4363694D01*
X14113694Y4212269D01*
X14286943Y4086396D01*
X14477749Y3989175D01*
X14477751Y3989175D01*
X14477752Y3989174D01*
X14681404Y3923003D01*
X14681410Y3923002D01*
X14681415Y3923000D01*
X14822422Y3900667D01*
X14892925Y3889500D01*
X14892926Y3889500D01*
X15107075Y3889500D01*
X15159951Y3897875D01*
X15318585Y3923000D01*
X15318592Y3923003D01*
X15318595Y3923003D01*
X15411055Y3953046D01*
X15522251Y3989175D01*
X15713057Y4086396D01*
X15886306Y4212269D01*
X16037731Y4363694D01*
X16163604Y4536943D01*
X16260825Y4727749D01*
X16327000Y4931415D01*
X16360500Y5142926D01*
X16360500Y5357074D01*
X16327000Y5568585D01*
X16326998Y5568590D01*
X16326997Y5568596D01*
X16260826Y5772248D01*
X16260824Y5772253D01*
X16257441Y5778893D01*
X16163604Y5963057D01*
X16097775Y6053662D01*
X16037734Y6136302D01*
X16037733Y6136303D01*
X16037731Y6136306D01*
X15886306Y6287731D01*
X15886303Y6287734D01*
X15886301Y6287735D01*
X15713059Y6413603D01*
X15713053Y6413606D01*
X15522252Y6510825D01*
X15522247Y6510827D01*
X15318595Y6576998D01*
X15318582Y6577001D01*
X15107075Y6610500D01*
X15107074Y6610500D01*
X14892926Y6610500D01*
X14892925Y6610500D01*
X14681417Y6577001D01*
X14681404Y6576998D01*
X14477752Y6510827D01*
X14477747Y6510825D01*
X14286946Y6413606D01*
X14286940Y6413603D01*
X14113698Y6287735D01*
X13962265Y6136302D01*
X13836397Y5963060D01*
X13836394Y5963054D01*
X13739175Y5772253D01*
X13739173Y5772248D01*
X13673002Y5568596D01*
X13672999Y5568583D01*
X13639500Y5357075D01*
X12300348Y5357075D01*
X12344231Y5443201D01*
X12405011Y5630262D01*
X12414781Y5660330D01*
X12414781Y5660333D01*
X12414784Y5660340D01*
X12450500Y5885843D01*
X12450500Y6114157D01*
X12414784Y6339660D01*
X12414782Y6339665D01*
X12414781Y6339671D01*
X12344233Y6556794D01*
X12344231Y6556797D01*
X12344231Y6556799D01*
X12240579Y6760228D01*
X12150553Y6884137D01*
X12106382Y6944933D01*
X12106381Y6944934D01*
X12106379Y6944937D01*
X11944937Y7106379D01*
X11944934Y7106382D01*
X11944932Y7106383D01*
X11760227Y7240580D01*
X11556793Y7344234D01*
X11339670Y7414782D01*
X11339657Y7414785D01*
X11114158Y7450500D01*
X11114157Y7450500D01*
X10885843Y7450500D01*
X10885842Y7450500D01*
X10660342Y7414785D01*
X10660329Y7414782D01*
X10443206Y7344234D01*
X10239772Y7240580D01*
X10055067Y7106383D01*
X9893617Y6944933D01*
X9759420Y6760228D01*
X9655766Y6556794D01*
X9585218Y6339671D01*
X9585215Y6339658D01*
X9549500Y6114158D01*
X8450499Y6114158D01*
X8450499Y6658736D01*
X8447628Y6701092D01*
X8402107Y6884136D01*
X8318301Y7053116D01*
X8278062Y7103175D01*
X8200130Y7200126D01*
X8200125Y7200131D01*
X8053120Y7318298D01*
X8053117Y7318300D01*
X8053116Y7318301D01*
X7884136Y7402107D01*
X7701092Y7447628D01*
X7701087Y7447629D01*
X7701085Y7447629D01*
X7658740Y7450500D01*
X6341273Y7450500D01*
X6298908Y7447628D01*
X6298907Y7447628D01*
X6115863Y7402107D01*
X5946882Y7318300D01*
X5946879Y7318298D01*
X5799874Y7200131D01*
X5799869Y7200126D01*
X5681702Y7053121D01*
X5681700Y7053118D01*
X5610864Y6910289D01*
X5597893Y6884136D01*
X5552373Y6701093D01*
X5552371Y6701086D01*
X5549500Y6658741D01*
X500500Y6658741D01*
X500500Y9495428D01*
X18397500Y9495428D01*
X18397500Y9304573D01*
X18427355Y9116075D01*
X18427358Y9116062D01*
X18486329Y8934568D01*
X18572976Y8764512D01*
X18661314Y8642926D01*
X18685157Y8610109D01*
X18820109Y8475157D01*
X18820112Y8475155D01*
X18820113Y8475154D01*
X18974511Y8362977D01*
X19035237Y8332036D01*
X19144562Y8276332D01*
X19144564Y8276332D01*
X19144567Y8276330D01*
X19326061Y8217359D01*
X19326067Y8217358D01*
X19326072Y8217356D01*
X19420323Y8202428D01*
X19514572Y8187500D01*
X19514574Y8187500D01*
X19705428Y8187500D01*
X19787504Y8200500D01*
X19893928Y8217356D01*
X19893935Y8217359D01*
X19893938Y8217359D01*
X20075432Y8276330D01*
X20075432Y8276331D01*
X20075438Y8276332D01*
X20245488Y8362977D01*
X20399891Y8475157D01*
X20534843Y8610109D01*
X20647023Y8764512D01*
X20733668Y8934562D01*
X20792644Y9116072D01*
X20806911Y9206151D01*
X20836504Y9254441D01*
X20891576Y9267663D01*
X20939867Y9238070D01*
X20953089Y9206150D01*
X20967355Y9116075D01*
X20967358Y9116062D01*
X21026329Y8934568D01*
X21112976Y8764512D01*
X21201314Y8642926D01*
X21225157Y8610109D01*
X21360109Y8475157D01*
X21360112Y8475155D01*
X21360113Y8475154D01*
X21514511Y8362977D01*
X21575237Y8332036D01*
X21684562Y8276332D01*
X21684564Y8276332D01*
X21684567Y8276330D01*
X21866061Y8217359D01*
X21866067Y8217358D01*
X21866072Y8217356D01*
X21960323Y8202428D01*
X22054572Y8187500D01*
X22054574Y8187500D01*
X22245428Y8187500D01*
X22327504Y8200500D01*
X22433928Y8217356D01*
X22433935Y8217359D01*
X22433938Y8217359D01*
X22615432Y8276330D01*
X22615432Y8276331D01*
X22615438Y8276332D01*
X22785488Y8362977D01*
X22939891Y8475157D01*
X23074843Y8610109D01*
X23187023Y8764512D01*
X23273668Y8934562D01*
X23332644Y9116072D01*
X23346911Y9206151D01*
X23376504Y9254441D01*
X23431576Y9267663D01*
X23479867Y9238070D01*
X23493089Y9206150D01*
X23507355Y9116075D01*
X23507358Y9116062D01*
X23566329Y8934568D01*
X23652976Y8764512D01*
X23741314Y8642926D01*
X23765157Y8610109D01*
X23900109Y8475157D01*
X23900112Y8475155D01*
X23900113Y8475154D01*
X24054511Y8362977D01*
X24084774Y8347558D01*
X24115238Y8332036D01*
X24152021Y8288969D01*
X24147578Y8232506D01*
X24104511Y8195723D01*
X24096080Y8193523D01*
X23976508Y8169739D01*
X23976498Y8169736D01*
X23830825Y8109397D01*
X23699711Y8021790D01*
X23699710Y8021788D01*
X23588212Y7910290D01*
X23588210Y7910289D01*
X23500603Y7779175D01*
X23440264Y7633502D01*
X23440261Y7633492D01*
X23414580Y7504384D01*
X23409500Y7478842D01*
X23409500Y7321158D01*
X23410069Y7318298D01*
X23440261Y7166509D01*
X23440264Y7166499D01*
X23466494Y7103175D01*
X23466494Y7046538D01*
X23450453Y7022531D01*
X23338212Y6910290D01*
X23338210Y6910289D01*
X23250603Y6779175D01*
X23190264Y6633502D01*
X23190261Y6633492D01*
X23159500Y6478841D01*
X23159500Y6321160D01*
X23190261Y6166509D01*
X23190264Y6166499D01*
X23250603Y6020826D01*
X23337118Y5891346D01*
X23338211Y5889711D01*
X23449711Y5778211D01*
X23580821Y5690606D01*
X23580826Y5690604D01*
X23580825Y5690604D01*
X23653890Y5660340D01*
X23726503Y5630263D01*
X23881158Y5599500D01*
X23881160Y5599500D01*
X24038840Y5599500D01*
X24038842Y5599500D01*
X24193497Y5630263D01*
X24339179Y5690606D01*
X24470289Y5778211D01*
X24581789Y5889711D01*
X24582882Y5891348D01*
X24591925Y5902405D01*
X24742240Y6053663D01*
X24794498Y6075500D01*
X28296831Y6075500D01*
X28334839Y6071525D01*
X28422341Y6075500D01*
X28558474Y6075500D01*
X28558475Y6075500D01*
X28578502Y6080867D01*
X28594292Y6083312D01*
X28950653Y6099500D01*
X28988842Y6099500D01*
X29004848Y6102684D01*
X29018917Y6103845D01*
X29020303Y6104012D01*
X29020629Y6104050D01*
X29020630Y6104051D01*
X29020636Y6104051D01*
X29095423Y6119459D01*
X29095425Y6119461D01*
X29095429Y6119461D01*
X29099534Y6120821D01*
X29099685Y6120364D01*
X29108821Y6123367D01*
X29143497Y6130263D01*
X29289179Y6190606D01*
X29420289Y6278211D01*
X29531789Y6389711D01*
X29619394Y6520821D01*
X29676522Y6658741D01*
X44759500Y6658741D01*
X44759500Y5341274D01*
X44759501Y5341264D01*
X44762372Y5298908D01*
X44807893Y5115864D01*
X44891699Y4946884D01*
X44891700Y4946883D01*
X44891702Y4946880D01*
X45009869Y4799875D01*
X45009874Y4799870D01*
X45099591Y4727753D01*
X45156884Y4681699D01*
X45325864Y4597893D01*
X45508908Y4552372D01*
X45551263Y4549500D01*
X46868736Y4549501D01*
X46911092Y4552372D01*
X47094136Y4597893D01*
X47263116Y4681699D01*
X47410128Y4799872D01*
X47528301Y4946884D01*
X47612107Y5115864D01*
X47657628Y5298908D01*
X47660500Y5341263D01*
X47660499Y6114158D01*
X48759500Y6114158D01*
X48759500Y5885843D01*
X48795215Y5660343D01*
X48795218Y5660330D01*
X48865766Y5443207D01*
X48939289Y5298908D01*
X48969421Y5239772D01*
X49103621Y5055063D01*
X49265063Y4893621D01*
X49449772Y4759421D01*
X49653201Y4655769D01*
X49653203Y4655769D01*
X49653206Y4655767D01*
X49870329Y4585219D01*
X49870335Y4585218D01*
X49870340Y4585216D01*
X50020675Y4561406D01*
X50095842Y4549500D01*
X50095843Y4549500D01*
X50324158Y4549500D01*
X50380532Y4558429D01*
X50549660Y4585216D01*
X50549667Y4585219D01*
X50549670Y4585219D01*
X50766793Y4655767D01*
X50766793Y4655768D01*
X50766799Y4655769D01*
X50970228Y4759421D01*
X51154937Y4893621D01*
X51316379Y5055063D01*
X51450579Y5239772D01*
X51554231Y5443201D01*
X51594971Y5568585D01*
X51624781Y5660330D01*
X51624781Y5660333D01*
X51624784Y5660340D01*
X51660500Y5885843D01*
X51660500Y6114157D01*
X51624784Y6339660D01*
X51624782Y6339665D01*
X51624781Y6339671D01*
X51554233Y6556794D01*
X51554231Y6556797D01*
X51554231Y6556799D01*
X51450579Y6760228D01*
X51360553Y6884137D01*
X51316382Y6944933D01*
X51316381Y6944934D01*
X51316379Y6944937D01*
X51154937Y7106379D01*
X51154934Y7106382D01*
X51154932Y7106383D01*
X50970227Y7240580D01*
X50766793Y7344234D01*
X50549670Y7414782D01*
X50549657Y7414785D01*
X50324158Y7450500D01*
X50324157Y7450500D01*
X50095843Y7450500D01*
X50095842Y7450500D01*
X49870342Y7414785D01*
X49870329Y7414782D01*
X49653206Y7344234D01*
X49449772Y7240580D01*
X49265067Y7106383D01*
X49103617Y6944933D01*
X48969420Y6760228D01*
X48865766Y6556794D01*
X48795218Y6339671D01*
X48795215Y6339658D01*
X48759500Y6114158D01*
X47660499Y6114158D01*
X47660499Y6658736D01*
X47657628Y6701092D01*
X47612107Y6884136D01*
X47528301Y7053116D01*
X47488062Y7103175D01*
X47410130Y7200126D01*
X47410125Y7200131D01*
X47263120Y7318298D01*
X47263117Y7318300D01*
X47263116Y7318301D01*
X47094136Y7402107D01*
X46911092Y7447628D01*
X46911087Y7447629D01*
X46911085Y7447629D01*
X46868740Y7450500D01*
X45551273Y7450500D01*
X45508908Y7447628D01*
X45508907Y7447628D01*
X45325863Y7402107D01*
X45156882Y7318300D01*
X45156879Y7318298D01*
X45009874Y7200131D01*
X45009869Y7200126D01*
X44891702Y7053121D01*
X44891700Y7053118D01*
X44820864Y6910289D01*
X44807893Y6884136D01*
X44762373Y6701093D01*
X44762371Y6701086D01*
X44759500Y6658741D01*
X29676522Y6658741D01*
X29679737Y6666503D01*
X29710500Y6821158D01*
X29710500Y6978842D01*
X29679737Y7133497D01*
X29619394Y7279179D01*
X29531789Y7410289D01*
X29420289Y7521789D01*
X29289179Y7609394D01*
X29289175Y7609396D01*
X29289173Y7609397D01*
X29289174Y7609397D01*
X29143501Y7669736D01*
X29143491Y7669739D01*
X29039925Y7690339D01*
X28988842Y7700500D01*
X28831158Y7700500D01*
X28787315Y7691780D01*
X28676508Y7669739D01*
X28676498Y7669736D01*
X28530825Y7609397D01*
X28399711Y7521790D01*
X28399710Y7521788D01*
X28288209Y7410287D01*
X28280768Y7399152D01*
X28274463Y7391008D01*
X28271211Y7387363D01*
X28266972Y7383714D01*
X28240187Y7352588D01*
X28239720Y7352063D01*
X28214771Y7340022D01*
X28190033Y7327532D01*
X28189355Y7327755D01*
X28188713Y7327445D01*
X28162560Y7336571D01*
X28136233Y7345233D01*
X28135911Y7345871D01*
X28135238Y7346105D01*
X28123196Y7371054D01*
X28110707Y7395792D01*
X28110660Y7397028D01*
X28110620Y7397112D01*
X28110653Y7397210D01*
X28110500Y7401325D01*
X28110500Y7478841D01*
X28108444Y7489175D01*
X28079737Y7633497D01*
X28079735Y7633502D01*
X28019396Y7779175D01*
X28019395Y7779177D01*
X28019394Y7779179D01*
X27931789Y7910289D01*
X27820289Y8021789D01*
X27797612Y8036941D01*
X27776978Y8050729D01*
X27689179Y8109394D01*
X27689176Y8109396D01*
X27689175Y8109396D01*
X27651390Y8125047D01*
X27611342Y8165096D01*
X27611342Y8221733D01*
X27651391Y8261781D01*
X27656814Y8263783D01*
X27695438Y8276332D01*
X27865488Y8362977D01*
X28019891Y8475157D01*
X28154843Y8610109D01*
X28267023Y8764512D01*
X28353668Y8934562D01*
X28412644Y9116072D01*
X28426911Y9206151D01*
X28456504Y9254441D01*
X28511576Y9267663D01*
X28559867Y9238070D01*
X28573089Y9206150D01*
X28587355Y9116075D01*
X28587358Y9116062D01*
X28646329Y8934568D01*
X28732976Y8764512D01*
X28821314Y8642926D01*
X28845157Y8610109D01*
X28980109Y8475157D01*
X28980112Y8475155D01*
X28980113Y8475154D01*
X29134511Y8362977D01*
X29195237Y8332036D01*
X29304562Y8276332D01*
X29304564Y8276332D01*
X29304567Y8276330D01*
X29486061Y8217359D01*
X29486067Y8217358D01*
X29486072Y8217356D01*
X29580323Y8202428D01*
X29674572Y8187500D01*
X29674574Y8187500D01*
X29865428Y8187500D01*
X29947504Y8200500D01*
X30053928Y8217356D01*
X30053935Y8217359D01*
X30053938Y8217359D01*
X30235432Y8276330D01*
X30235432Y8276331D01*
X30235438Y8276332D01*
X30405488Y8362977D01*
X30559891Y8475157D01*
X30694843Y8610109D01*
X30807023Y8764512D01*
X30893668Y8934562D01*
X30952644Y9116072D01*
X30982500Y9304574D01*
X30982500Y9487517D01*
X31198000Y9487517D01*
X31198000Y9312484D01*
X31225380Y9139609D01*
X31225383Y9139596D01*
X31279466Y8973146D01*
X31358931Y8817186D01*
X31409750Y8747240D01*
X31894766Y9232256D01*
X31895792Y9228429D01*
X31954311Y9127070D01*
X32037070Y9044311D01*
X32138429Y8985792D01*
X32142253Y8984768D01*
X31657238Y8499752D01*
X31727182Y8448934D01*
X31727188Y8448931D01*
X31883137Y8369470D01*
X31883143Y8369468D01*
X32049595Y8315384D01*
X32049608Y8315381D01*
X32222483Y8288000D01*
X32397517Y8288000D01*
X32570391Y8315381D01*
X32570404Y8315384D01*
X32736856Y8369468D01*
X32736862Y8369470D01*
X32892811Y8448931D01*
X32892817Y8448934D01*
X32962760Y8499752D01*
X32962761Y8499752D01*
X32477745Y8984768D01*
X32481571Y8985792D01*
X32582930Y9044311D01*
X32665689Y9127070D01*
X32724208Y9228429D01*
X32725232Y9232255D01*
X33210248Y8747239D01*
X33210248Y8747240D01*
X33261066Y8817183D01*
X33261069Y8817189D01*
X33340530Y8973138D01*
X33340532Y8973144D01*
X33394616Y9139596D01*
X33394619Y9139609D01*
X33422000Y9312484D01*
X33422000Y9487515D01*
X33420747Y9495428D01*
X33637500Y9495428D01*
X33637500Y9304573D01*
X33667355Y9116075D01*
X33667358Y9116062D01*
X33726329Y8934568D01*
X33812976Y8764512D01*
X33901314Y8642926D01*
X33925157Y8610109D01*
X34060109Y8475157D01*
X34060112Y8475155D01*
X34060113Y8475154D01*
X34214511Y8362977D01*
X34275237Y8332036D01*
X34384562Y8276332D01*
X34384564Y8276332D01*
X34384567Y8276330D01*
X34566061Y8217359D01*
X34566067Y8217358D01*
X34566072Y8217356D01*
X34660323Y8202428D01*
X34754572Y8187500D01*
X34754574Y8187500D01*
X34945428Y8187500D01*
X35027504Y8200500D01*
X35133928Y8217356D01*
X35133935Y8217359D01*
X35133938Y8217359D01*
X35315432Y8276330D01*
X35315432Y8276331D01*
X35315438Y8276332D01*
X35485488Y8362977D01*
X35639891Y8475157D01*
X35774843Y8610109D01*
X35887023Y8764512D01*
X35934186Y8857075D01*
X39349500Y8857075D01*
X39349500Y8642926D01*
X39382999Y8431418D01*
X39383002Y8431405D01*
X39449173Y8227753D01*
X39449175Y8227748D01*
X39546394Y8036947D01*
X39546397Y8036941D01*
X39672265Y7863699D01*
X39672269Y7863694D01*
X39823694Y7712269D01*
X39823697Y7712267D01*
X39823698Y7712266D01*
X39882235Y7669736D01*
X39996943Y7586396D01*
X40187749Y7489175D01*
X40187751Y7489175D01*
X40187752Y7489174D01*
X40391404Y7423003D01*
X40391410Y7423002D01*
X40391415Y7423000D01*
X40528266Y7401325D01*
X40602925Y7389500D01*
X40602926Y7389500D01*
X40817075Y7389500D01*
X40891734Y7401325D01*
X41028585Y7423000D01*
X41028592Y7423003D01*
X41028595Y7423003D01*
X41200449Y7478842D01*
X41232251Y7489175D01*
X41423057Y7586396D01*
X41596306Y7712269D01*
X41747731Y7863694D01*
X41873604Y8036943D01*
X41970825Y8227749D01*
X42037000Y8431415D01*
X42070500Y8642926D01*
X42070500Y8857074D01*
X42037000Y9068585D01*
X42036998Y9068590D01*
X42036997Y9068596D01*
X41970826Y9272248D01*
X41970824Y9272253D01*
X41954356Y9304573D01*
X41873604Y9463057D01*
X41778576Y9593851D01*
X41747734Y9636302D01*
X41747733Y9636303D01*
X41747731Y9636306D01*
X41596306Y9787731D01*
X41596303Y9787734D01*
X41596301Y9787735D01*
X41423059Y9913603D01*
X41423053Y9913606D01*
X41232252Y10010825D01*
X41232247Y10010827D01*
X41028595Y10076998D01*
X41028582Y10077001D01*
X40817075Y10110500D01*
X40817074Y10110500D01*
X40602926Y10110500D01*
X40602925Y10110500D01*
X40391417Y10077001D01*
X40391404Y10076998D01*
X40187752Y10010827D01*
X40187747Y10010825D01*
X39996946Y9913606D01*
X39996940Y9913603D01*
X39823698Y9787735D01*
X39672265Y9636302D01*
X39546397Y9463060D01*
X39546394Y9463054D01*
X39449175Y9272253D01*
X39449173Y9272248D01*
X39383002Y9068596D01*
X39382999Y9068583D01*
X39349500Y8857075D01*
X35934186Y8857075D01*
X35973668Y8934562D01*
X36032644Y9116072D01*
X36062500Y9304574D01*
X36062500Y9495426D01*
X36054559Y9545560D01*
X36040187Y9636302D01*
X36032644Y9683928D01*
X36032642Y9683933D01*
X36032641Y9683939D01*
X35973670Y9865433D01*
X35973668Y9865436D01*
X35973668Y9865438D01*
X35928784Y9953526D01*
X35887023Y10035489D01*
X35774846Y10189887D01*
X35774845Y10189888D01*
X35774843Y10189891D01*
X35639891Y10324843D01*
X35639888Y10324846D01*
X35639886Y10324847D01*
X35485488Y10437024D01*
X35315432Y10523671D01*
X35133938Y10582642D01*
X35133925Y10582645D01*
X34945428Y10612500D01*
X34945426Y10612500D01*
X34754574Y10612500D01*
X34754572Y10612500D01*
X34566074Y10582645D01*
X34566061Y10582642D01*
X34384567Y10523671D01*
X34214511Y10437024D01*
X34060113Y10324847D01*
X33925153Y10189887D01*
X33812976Y10035489D01*
X33726329Y9865433D01*
X33667358Y9683939D01*
X33667355Y9683926D01*
X33637500Y9495428D01*
X33420747Y9495428D01*
X33394619Y9660392D01*
X33394616Y9660405D01*
X33340532Y9826857D01*
X33340530Y9826863D01*
X33261069Y9982812D01*
X33261066Y9982818D01*
X33210248Y10052762D01*
X32725232Y9567747D01*
X32724208Y9571571D01*
X32665689Y9672930D01*
X32582930Y9755689D01*
X32481571Y9814208D01*
X32477744Y9815234D01*
X32962760Y10300250D01*
X32892814Y10351069D01*
X32736854Y10430534D01*
X32570404Y10484617D01*
X32570391Y10484620D01*
X32397517Y10512000D01*
X32222483Y10512000D01*
X32049608Y10484620D01*
X32049595Y10484617D01*
X31883145Y10430534D01*
X31727189Y10351071D01*
X31657238Y10300249D01*
X32142254Y9815233D01*
X32138429Y9814208D01*
X32037070Y9755689D01*
X31954311Y9672930D01*
X31895792Y9571571D01*
X31894767Y9567746D01*
X31409751Y10052762D01*
X31358929Y9982811D01*
X31279466Y9826855D01*
X31225383Y9660405D01*
X31225380Y9660392D01*
X31198000Y9487517D01*
X30982500Y9487517D01*
X30982500Y9495426D01*
X30974559Y9545560D01*
X30960187Y9636302D01*
X30952644Y9683928D01*
X30952642Y9683933D01*
X30952641Y9683939D01*
X30893670Y9865433D01*
X30893668Y9865436D01*
X30893668Y9865438D01*
X30848784Y9953526D01*
X30807023Y10035489D01*
X30694846Y10189887D01*
X30694845Y10189888D01*
X30694843Y10189891D01*
X30559891Y10324843D01*
X30559888Y10324846D01*
X30559886Y10324847D01*
X30405488Y10437024D01*
X30235432Y10523671D01*
X30053938Y10582642D01*
X30053925Y10582645D01*
X29865428Y10612500D01*
X29865426Y10612500D01*
X29674574Y10612500D01*
X29674572Y10612500D01*
X29486074Y10582645D01*
X29486061Y10582642D01*
X29304567Y10523671D01*
X29134511Y10437024D01*
X28980113Y10324847D01*
X28845153Y10189887D01*
X28732976Y10035489D01*
X28646329Y9865433D01*
X28587358Y9683939D01*
X28587355Y9683926D01*
X28573089Y9593851D01*
X28543496Y9545560D01*
X28488424Y9532338D01*
X28440133Y9561931D01*
X28426911Y9593851D01*
X28420186Y9636311D01*
X28412644Y9683928D01*
X28412642Y9683933D01*
X28412641Y9683939D01*
X28353670Y9865433D01*
X28353668Y9865436D01*
X28353668Y9865438D01*
X28308784Y9953526D01*
X28267023Y10035489D01*
X28154846Y10189887D01*
X28154845Y10189888D01*
X28154843Y10189891D01*
X28019891Y10324843D01*
X28019888Y10324846D01*
X28019886Y10324847D01*
X27865488Y10437024D01*
X27695432Y10523671D01*
X27513938Y10582642D01*
X27513925Y10582645D01*
X27325428Y10612500D01*
X27325426Y10612500D01*
X27134574Y10612500D01*
X27134572Y10612500D01*
X26946074Y10582645D01*
X26946061Y10582642D01*
X26764567Y10523671D01*
X26594511Y10437024D01*
X26440113Y10324847D01*
X26305153Y10189887D01*
X26192976Y10035489D01*
X26106329Y9865433D01*
X26047358Y9683939D01*
X26047355Y9683926D01*
X26033089Y9593851D01*
X26003496Y9545560D01*
X25948424Y9532338D01*
X25900133Y9561931D01*
X25886911Y9593851D01*
X25880186Y9636311D01*
X25872644Y9683928D01*
X25872642Y9683933D01*
X25872641Y9683939D01*
X25813670Y9865433D01*
X25813668Y9865436D01*
X25813668Y9865438D01*
X25768784Y9953526D01*
X25727023Y10035489D01*
X25614846Y10189887D01*
X25614845Y10189888D01*
X25614843Y10189891D01*
X25479891Y10324843D01*
X25479888Y10324846D01*
X25479886Y10324847D01*
X25402400Y10381144D01*
X25372807Y10429435D01*
X25386029Y10484507D01*
X25434320Y10514100D01*
X25460327Y10513590D01*
X25531158Y10499500D01*
X25531160Y10499500D01*
X25688840Y10499500D01*
X25688842Y10499500D01*
X25843497Y10530263D01*
X25989179Y10590606D01*
X26004795Y10601042D01*
X26021502Y10609372D01*
X26026407Y10611086D01*
X26026406Y10611086D01*
X26026413Y10611088D01*
X26287531Y10748945D01*
X26301035Y10754447D01*
X26301970Y10754725D01*
X26422485Y10787016D01*
X26427153Y10789711D01*
X26548015Y10859490D01*
X26739284Y11050761D01*
X26761821Y11066172D01*
X27219429Y11267351D01*
X27298799Y11300226D01*
X27314490Y11310711D01*
X27319946Y11313396D01*
X27321710Y11314361D01*
X27389407Y11359701D01*
X27389415Y11359711D01*
X27391598Y11361585D01*
X27398709Y11366985D01*
X27429909Y11387831D01*
X27541409Y11499331D01*
X27629014Y11630441D01*
X27689357Y11776123D01*
X27720120Y11930778D01*
X27720120Y12088462D01*
X27689357Y12243117D01*
X27662178Y12308734D01*
X27629016Y12388795D01*
X27629015Y12388797D01*
X27629014Y12388799D01*
X27541409Y12519909D01*
X27429909Y12631409D01*
X27298799Y12719014D01*
X27298795Y12719016D01*
X27298793Y12719017D01*
X27298794Y12719017D01*
X27153121Y12779356D01*
X27153111Y12779359D01*
X27049545Y12799959D01*
X26998462Y12810120D01*
X26840778Y12810120D01*
X26796935Y12801400D01*
X26686128Y12779359D01*
X26686118Y12779356D01*
X26540445Y12719017D01*
X26409331Y12631410D01*
X26409330Y12631408D01*
X26297832Y12519910D01*
X26297830Y12519909D01*
X26210225Y12388799D01*
X26177667Y12310197D01*
X26177042Y12308734D01*
X26066235Y12056691D01*
X26046788Y12038064D01*
X26028109Y12018658D01*
X26026498Y12018628D01*
X26025335Y12017513D01*
X25971482Y12017579D01*
X25933555Y12032449D01*
X25932248Y12032976D01*
X25843499Y12069737D01*
X25843490Y12069739D01*
X25829654Y12072491D01*
X25829653Y12072491D01*
X25824805Y12073456D01*
X25819722Y12075195D01*
X25817752Y12075774D01*
X25736752Y12091781D01*
X25733431Y12091631D01*
X25725792Y12093151D01*
X25688842Y12100500D01*
X25531158Y12100500D01*
X25487325Y12091781D01*
X25376508Y12069739D01*
X25376498Y12069736D01*
X25230825Y12009397D01*
X25099711Y11921790D01*
X25099710Y11921788D01*
X24988212Y11810290D01*
X24988210Y11810289D01*
X24900603Y11679175D01*
X24840264Y11533502D01*
X24840261Y11533492D01*
X24809500Y11378841D01*
X24809500Y11221160D01*
X24840261Y11066509D01*
X24840264Y11066499D01*
X24900603Y10920826D01*
X24988210Y10789712D01*
X25083861Y10694061D01*
X25105535Y10641735D01*
X25083861Y10589409D01*
X25031535Y10567735D01*
X25008668Y10571357D01*
X24973938Y10582642D01*
X24973925Y10582645D01*
X24785428Y10612500D01*
X24785426Y10612500D01*
X24594574Y10612500D01*
X24594572Y10612500D01*
X24406074Y10582645D01*
X24406061Y10582642D01*
X24224567Y10523671D01*
X24054511Y10437024D01*
X23900113Y10324847D01*
X23765153Y10189887D01*
X23652976Y10035489D01*
X23566329Y9865433D01*
X23507358Y9683939D01*
X23507355Y9683926D01*
X23493089Y9593851D01*
X23463496Y9545560D01*
X23408424Y9532338D01*
X23360133Y9561931D01*
X23346911Y9593851D01*
X23340186Y9636311D01*
X23332644Y9683928D01*
X23332642Y9683933D01*
X23332641Y9683939D01*
X23273670Y9865433D01*
X23273668Y9865436D01*
X23273668Y9865438D01*
X23228784Y9953526D01*
X23187023Y10035489D01*
X23074846Y10189887D01*
X23074845Y10189888D01*
X23074843Y10189891D01*
X22939891Y10324843D01*
X22939888Y10324846D01*
X22939886Y10324847D01*
X22785488Y10437024D01*
X22615432Y10523671D01*
X22433938Y10582642D01*
X22433925Y10582645D01*
X22245428Y10612500D01*
X22245426Y10612500D01*
X22054574Y10612500D01*
X22054572Y10612500D01*
X21866074Y10582645D01*
X21866061Y10582642D01*
X21684567Y10523671D01*
X21514511Y10437024D01*
X21360113Y10324847D01*
X21225153Y10189887D01*
X21112976Y10035489D01*
X21026329Y9865433D01*
X20967358Y9683939D01*
X20967355Y9683926D01*
X20953089Y9593851D01*
X20923496Y9545560D01*
X20868424Y9532338D01*
X20820133Y9561931D01*
X20806911Y9593851D01*
X20800186Y9636311D01*
X20792644Y9683928D01*
X20792642Y9683933D01*
X20792641Y9683939D01*
X20733670Y9865433D01*
X20733668Y9865436D01*
X20733668Y9865438D01*
X20688784Y9953526D01*
X20647023Y10035489D01*
X20534846Y10189887D01*
X20534845Y10189888D01*
X20534843Y10189891D01*
X20399891Y10324843D01*
X20399888Y10324846D01*
X20399886Y10324847D01*
X20245488Y10437024D01*
X20075432Y10523671D01*
X19893938Y10582642D01*
X19893925Y10582645D01*
X19705428Y10612500D01*
X19705426Y10612500D01*
X19514574Y10612500D01*
X19514572Y10612500D01*
X19326074Y10582645D01*
X19326061Y10582642D01*
X19144567Y10523671D01*
X18974511Y10437024D01*
X18820113Y10324847D01*
X18685153Y10189887D01*
X18572976Y10035489D01*
X18486329Y9865433D01*
X18427358Y9683939D01*
X18427355Y9683926D01*
X18397500Y9495428D01*
X500500Y9495428D01*
X500500Y15328841D01*
X28159500Y15328841D01*
X28159500Y15171160D01*
X28190261Y15016509D01*
X28190264Y15016499D01*
X28250603Y14870826D01*
X28250605Y14870823D01*
X28250606Y14870821D01*
X28338211Y14739711D01*
X28449711Y14628211D01*
X28580821Y14540606D01*
X28580826Y14540604D01*
X28580825Y14540604D01*
X28726498Y14480265D01*
X28726503Y14480263D01*
X28881158Y14449500D01*
X28881160Y14449500D01*
X29038840Y14449500D01*
X29038842Y14449500D01*
X29193497Y14480263D01*
X29272184Y14512857D01*
X29273613Y14513431D01*
X29738696Y14694460D01*
X29765538Y14699500D01*
X31154462Y14699500D01*
X31181304Y14694460D01*
X31647128Y14513141D01*
X31726503Y14480263D01*
X31744933Y14476597D01*
X31750511Y14474697D01*
X31750518Y14474695D01*
X31750526Y14474692D01*
X31752435Y14474132D01*
X31752438Y14474132D01*
X31752440Y14474131D01*
X31792558Y14466187D01*
X31832676Y14458242D01*
X31835546Y14458024D01*
X31844390Y14456814D01*
X31881158Y14449500D01*
X31881159Y14449500D01*
X32038840Y14449500D01*
X32038842Y14449500D01*
X32193497Y14480263D01*
X32339179Y14540606D01*
X32470289Y14628211D01*
X32581789Y14739711D01*
X32669394Y14870821D01*
X32729737Y15016503D01*
X32760500Y15171158D01*
X32760500Y15328842D01*
X32729737Y15483497D01*
X32669394Y15629179D01*
X32581789Y15760289D01*
X32470289Y15871789D01*
X32339179Y15959394D01*
X32339175Y15959396D01*
X32339173Y15959397D01*
X32339174Y15959397D01*
X32193501Y16019736D01*
X32193491Y16019739D01*
X32083605Y16041596D01*
X32038842Y16050500D01*
X31881158Y16050500D01*
X31838320Y16041979D01*
X31726508Y16019739D01*
X31726506Y16019738D01*
X31726504Y16019738D01*
X31726503Y16019737D01*
X31726501Y16019736D01*
X31647909Y15987183D01*
X31646434Y15986591D01*
X31181300Y15805540D01*
X31154458Y15800500D01*
X29765539Y15800500D01*
X29738697Y15805540D01*
X29274096Y15986384D01*
X29274050Y15986401D01*
X29272848Y15986869D01*
X29193497Y16019737D01*
X29175071Y16023403D01*
X29169507Y16025298D01*
X29169487Y16025305D01*
X29169488Y16025305D01*
X29167565Y16025869D01*
X29167557Y16025871D01*
X29087321Y16041760D01*
X29084437Y16041979D01*
X29075606Y16043188D01*
X29038843Y16050500D01*
X29038842Y16050500D01*
X28881158Y16050500D01*
X28838320Y16041979D01*
X28726508Y16019739D01*
X28726498Y16019736D01*
X28580825Y15959397D01*
X28449711Y15871790D01*
X28449710Y15871788D01*
X28338212Y15760290D01*
X28338210Y15760289D01*
X28250603Y15629175D01*
X28190264Y15483502D01*
X28190261Y15483492D01*
X28159500Y15328841D01*
X500500Y15328841D01*
X500500Y17078841D01*
X15909500Y17078841D01*
X15909500Y16921160D01*
X15940261Y16766509D01*
X15940264Y16766499D01*
X16000603Y16620826D01*
X16072555Y16513141D01*
X16088211Y16489711D01*
X16199711Y16378211D01*
X16330821Y16290606D01*
X16330826Y16290604D01*
X16330825Y16290604D01*
X16476498Y16230265D01*
X16476503Y16230263D01*
X16631158Y16199500D01*
X16631160Y16199500D01*
X16788840Y16199500D01*
X16788842Y16199500D01*
X16943497Y16230263D01*
X17089179Y16290606D01*
X17220289Y16378211D01*
X17248702Y16406624D01*
X41884500Y16406624D01*
X41884500Y15593377D01*
X41890913Y15522810D01*
X41890913Y15522809D01*
X41890913Y15522807D01*
X41890914Y15522804D01*
X41941522Y15360394D01*
X42029528Y15214815D01*
X42149815Y15094528D01*
X42295394Y15006522D01*
X42457804Y14955914D01*
X42528384Y14949500D01*
X42528386Y14949500D01*
X43891614Y14949500D01*
X43891616Y14949500D01*
X43962196Y14955914D01*
X44124606Y15006522D01*
X44270185Y15094528D01*
X44390472Y15214815D01*
X44478478Y15360394D01*
X44508618Y15457119D01*
X44508623Y15457136D01*
X57259500Y15457136D01*
X57259500Y13542884D01*
X57259501Y13542862D01*
X57262248Y13496739D01*
X57262249Y13496733D01*
X57305908Y13296036D01*
X57305909Y13296032D01*
X57386760Y13107227D01*
X57386761Y13107224D01*
X57501884Y12937130D01*
X57501890Y12937123D01*
X57647123Y12791890D01*
X57647129Y12791885D01*
X57817223Y12676762D01*
X57817226Y12676761D01*
X58006031Y12595910D01*
X58006035Y12595909D01*
X58206736Y12552249D01*
X58252881Y12549500D01*
X60167118Y12549501D01*
X60167124Y12549502D01*
X60167138Y12549502D01*
X60190970Y12550922D01*
X60213264Y12552249D01*
X60413965Y12595909D01*
X60413966Y12595910D01*
X60413968Y12595910D01*
X60602773Y12676761D01*
X60602776Y12676762D01*
X60680500Y12729368D01*
X60772875Y12791888D01*
X60918112Y12937125D01*
X61033237Y13107223D01*
X61033238Y13107224D01*
X61033239Y13107227D01*
X61114090Y13296032D01*
X61114091Y13296036D01*
X61157750Y13496732D01*
X61157750Y13496733D01*
X61157751Y13496736D01*
X61160500Y13542881D01*
X61160499Y15457118D01*
X61159122Y15480234D01*
X61157751Y15503262D01*
X61157750Y15503268D01*
X61138146Y15593384D01*
X61114091Y15703965D01*
X61114090Y15703969D01*
X61033239Y15892774D01*
X61033238Y15892777D01*
X60918115Y16062871D01*
X60918110Y16062877D01*
X60772877Y16208110D01*
X60772870Y16208116D01*
X60602776Y16323239D01*
X60602773Y16323240D01*
X60413968Y16404091D01*
X60413964Y16404092D01*
X60213268Y16447751D01*
X60213260Y16447752D01*
X60167127Y16450500D01*
X58252883Y16450500D01*
X58252861Y16450499D01*
X58206738Y16447752D01*
X58206732Y16447751D01*
X58006035Y16404092D01*
X58006031Y16404091D01*
X57817226Y16323240D01*
X57817223Y16323239D01*
X57647129Y16208116D01*
X57501884Y16062871D01*
X57386761Y15892777D01*
X57386760Y15892774D01*
X57305909Y15703969D01*
X57305908Y15703965D01*
X57262249Y15503269D01*
X57262248Y15503261D01*
X57259500Y15457136D01*
X44508623Y15457136D01*
X44515820Y15480230D01*
X44515821Y15480234D01*
X44516839Y15483502D01*
X44529086Y15522804D01*
X44535500Y15593384D01*
X44535500Y16406616D01*
X44529086Y16477196D01*
X44478478Y16639606D01*
X44390472Y16785185D01*
X44270185Y16905472D01*
X44244234Y16921160D01*
X44124607Y16993478D01*
X44124601Y16993480D01*
X43975186Y17040039D01*
X43931677Y17076298D01*
X43926552Y17132703D01*
X43956089Y17172217D01*
X44090589Y17262087D01*
X44090591Y17262088D01*
X44222912Y17394409D01*
X44222913Y17394411D01*
X44326880Y17550009D01*
X44398490Y17722891D01*
X44398493Y17722901D01*
X44418801Y17825000D01*
X43541976Y17825000D01*
X43559444Y17855255D01*
X43585000Y17950630D01*
X43585000Y18049370D01*
X43559444Y18144745D01*
X43541976Y18175000D01*
X44418801Y18175000D01*
X44418801Y18175001D01*
X44398493Y18277100D01*
X44398490Y18277110D01*
X44326880Y18449992D01*
X44222913Y18605590D01*
X44090589Y18737914D01*
X43934991Y18841881D01*
X43762109Y18913491D01*
X43762099Y18913494D01*
X43578565Y18950000D01*
X43385000Y18950000D01*
X43385000Y18331977D01*
X43354745Y18349444D01*
X43259370Y18375000D01*
X43160630Y18375000D01*
X43065255Y18349444D01*
X43035000Y18331977D01*
X43035000Y18950000D01*
X42841435Y18950000D01*
X42657900Y18913494D01*
X42657890Y18913491D01*
X42485008Y18841881D01*
X42329410Y18737914D01*
X42329409Y18737912D01*
X42197088Y18605591D01*
X42197086Y18605590D01*
X42093119Y18449992D01*
X42021509Y18277110D01*
X42021506Y18277100D01*
X42001198Y18175001D01*
X42001198Y18175000D01*
X42878024Y18175000D01*
X42860556Y18144745D01*
X42835000Y18049370D01*
X42835000Y17950630D01*
X42860556Y17855255D01*
X42878024Y17825000D01*
X42001198Y17825000D01*
X42021506Y17722901D01*
X42021509Y17722891D01*
X42093119Y17550009D01*
X42197086Y17394411D01*
X42329410Y17262087D01*
X42463910Y17172217D01*
X42495376Y17125125D01*
X42484327Y17069576D01*
X42444813Y17040039D01*
X42295398Y16993480D01*
X42295392Y16993478D01*
X42149814Y16905472D01*
X42029528Y16785186D01*
X41970616Y16687733D01*
X41941522Y16639606D01*
X41891870Y16480264D01*
X41890913Y16477192D01*
X41890913Y16477191D01*
X41884500Y16406624D01*
X17248702Y16406624D01*
X17331789Y16489711D01*
X17338598Y16499904D01*
X17350069Y16512806D01*
X17349921Y16512955D01*
X17351880Y16514901D01*
X17351888Y16514907D01*
X17489838Y16673982D01*
X17492345Y16675236D01*
X17493418Y16677826D01*
X17517335Y16687733D01*
X17540494Y16699314D01*
X17545744Y16699500D01*
X17654462Y16699500D01*
X17681304Y16694460D01*
X18142588Y16514908D01*
X18146391Y16513428D01*
X18147827Y16512852D01*
X18226503Y16480263D01*
X18244933Y16476597D01*
X18250511Y16474697D01*
X18252440Y16474131D01*
X18332677Y16458242D01*
X18336387Y16458406D01*
X18381158Y16449500D01*
X18381159Y16449500D01*
X18538840Y16449500D01*
X18538842Y16449500D01*
X18693497Y16480263D01*
X18839179Y16540606D01*
X18970289Y16628211D01*
X19081789Y16739711D01*
X19169394Y16870821D01*
X19229737Y17016503D01*
X19260500Y17171158D01*
X19260500Y17328842D01*
X19229737Y17483497D01*
X19229735Y17483502D01*
X19169396Y17629175D01*
X19169395Y17629177D01*
X19169394Y17629179D01*
X19081789Y17760289D01*
X19013237Y17828841D01*
X32409500Y17828841D01*
X32409500Y17671160D01*
X32440261Y17516509D01*
X32440264Y17516499D01*
X32500603Y17370826D01*
X32500605Y17370823D01*
X32500606Y17370821D01*
X32588211Y17239711D01*
X32699711Y17128211D01*
X32830821Y17040606D01*
X32830826Y17040604D01*
X32830825Y17040604D01*
X32944594Y16993480D01*
X32976503Y16980263D01*
X33131158Y16949500D01*
X33131160Y16949500D01*
X33288840Y16949500D01*
X33288842Y16949500D01*
X33443497Y16980263D01*
X33589179Y17040606D01*
X33720289Y17128211D01*
X33831789Y17239711D01*
X33919394Y17370821D01*
X33952017Y17449582D01*
X33952569Y17450876D01*
X34153448Y17907799D01*
X34168859Y17930336D01*
X34583466Y18344943D01*
X34618620Y18364596D01*
X35023022Y18461046D01*
X35055241Y18469992D01*
X35055601Y18470169D01*
X35056547Y18470490D01*
X35058472Y18471223D01*
X35058499Y18471152D01*
X35073844Y18476354D01*
X35086647Y18478901D01*
X35093497Y18480263D01*
X35239179Y18540606D01*
X35370289Y18628211D01*
X35481789Y18739711D01*
X35569394Y18870821D01*
X35629737Y19016503D01*
X35660500Y19171158D01*
X35660500Y19328842D01*
X35629737Y19483497D01*
X35572677Y19621254D01*
X57360000Y19621254D01*
X57360000Y19378747D01*
X57391652Y19138316D01*
X57391654Y19138307D01*
X57454419Y18904068D01*
X57454423Y18904055D01*
X57547224Y18680013D01*
X57547225Y18680011D01*
X57668478Y18469994D01*
X57668482Y18469988D01*
X57783110Y18320601D01*
X57783111Y18320600D01*
X58753387Y19290878D01*
X58809901Y19192993D01*
X58902993Y19099901D01*
X59000876Y19043389D01*
X58030599Y18073112D01*
X58179987Y17958483D01*
X58179993Y17958479D01*
X58390010Y17837226D01*
X58390012Y17837225D01*
X58614054Y17744424D01*
X58614067Y17744420D01*
X58848306Y17681655D01*
X58848315Y17681653D01*
X59088747Y17650000D01*
X59331253Y17650000D01*
X59571684Y17681653D01*
X59571693Y17681655D01*
X59805932Y17744420D01*
X59805945Y17744424D01*
X60029987Y17837225D01*
X60029989Y17837226D01*
X60240006Y17958479D01*
X60240012Y17958483D01*
X60389399Y18073112D01*
X59419123Y19043389D01*
X59517007Y19099901D01*
X59610099Y19192993D01*
X59666612Y19290877D01*
X60636888Y18320601D01*
X60751517Y18469988D01*
X60751521Y18469994D01*
X60872774Y18680011D01*
X60872775Y18680013D01*
X60965576Y18904055D01*
X60965580Y18904068D01*
X61028345Y19138307D01*
X61028347Y19138316D01*
X61060000Y19378747D01*
X61060000Y19621254D01*
X61028347Y19861685D01*
X61028345Y19861694D01*
X60965580Y20095933D01*
X60965576Y20095946D01*
X60872775Y20319988D01*
X60872774Y20319990D01*
X60751521Y20530007D01*
X60751517Y20530013D01*
X60636888Y20679401D01*
X59666611Y19709125D01*
X59610099Y19807007D01*
X59517007Y19900099D01*
X59419122Y19956613D01*
X60389400Y20926889D01*
X60389399Y20926890D01*
X60240012Y21041518D01*
X60240006Y21041522D01*
X60029989Y21162775D01*
X60029987Y21162776D01*
X59805945Y21255577D01*
X59805932Y21255581D01*
X59571693Y21318346D01*
X59571684Y21318348D01*
X59331253Y21350000D01*
X59088747Y21350000D01*
X58848315Y21318348D01*
X58848306Y21318346D01*
X58614067Y21255581D01*
X58614054Y21255577D01*
X58390012Y21162776D01*
X58390010Y21162775D01*
X58179993Y21041522D01*
X58179987Y21041518D01*
X58030599Y20926890D01*
X58030599Y20926889D01*
X59000876Y19956612D01*
X58902993Y19900099D01*
X58809901Y19807007D01*
X58753388Y19709124D01*
X57783111Y20679401D01*
X57783110Y20679401D01*
X57668482Y20530013D01*
X57668478Y20530007D01*
X57547225Y20319990D01*
X57547224Y20319988D01*
X57454423Y20095946D01*
X57454419Y20095933D01*
X57391654Y19861694D01*
X57391652Y19861685D01*
X57360000Y19621254D01*
X35572677Y19621254D01*
X35569394Y19629179D01*
X35481789Y19760289D01*
X35370289Y19871789D01*
X35239179Y19959394D01*
X35239175Y19959396D01*
X35239173Y19959397D01*
X35239174Y19959397D01*
X35093501Y20019736D01*
X35093491Y20019739D01*
X34989925Y20040339D01*
X34938842Y20050500D01*
X34781158Y20050500D01*
X34737315Y20041780D01*
X34626508Y20019739D01*
X34626498Y20019736D01*
X34480825Y19959397D01*
X34349711Y19871790D01*
X34349710Y19871788D01*
X34238207Y19760285D01*
X34204196Y19709386D01*
X34198621Y19702071D01*
X34177615Y19677802D01*
X33869467Y19190551D01*
X33859251Y19177778D01*
X33390339Y18708866D01*
X33367795Y18693450D01*
X32911426Y18492816D01*
X32911336Y18492776D01*
X32910165Y18492260D01*
X32830821Y18459394D01*
X32815123Y18448906D01*
X32809869Y18446319D01*
X32809848Y18446309D01*
X32809621Y18446197D01*
X32807860Y18445234D01*
X32740211Y18399921D01*
X32738001Y18398022D01*
X32730905Y18392635D01*
X32699714Y18371792D01*
X32588212Y18260290D01*
X32588210Y18260289D01*
X32500603Y18129175D01*
X32440264Y17983502D01*
X32440261Y17983492D01*
X32418043Y17871790D01*
X32411168Y17837225D01*
X32409500Y17828841D01*
X19013237Y17828841D01*
X18970289Y17871789D01*
X18839179Y17959394D01*
X18839175Y17959396D01*
X18839173Y17959397D01*
X18839174Y17959397D01*
X18693501Y18019736D01*
X18693491Y18019739D01*
X18589925Y18040339D01*
X18538842Y18050500D01*
X18381158Y18050500D01*
X18337315Y18041780D01*
X18226508Y18019739D01*
X18226506Y18019738D01*
X18226504Y18019738D01*
X18226503Y18019737D01*
X18226501Y18019736D01*
X18147909Y17987183D01*
X18146434Y17986591D01*
X17681300Y17805540D01*
X17654458Y17800500D01*
X17323024Y17800500D01*
X17312745Y17801218D01*
X17298434Y17803226D01*
X17283249Y17805356D01*
X17283247Y17805356D01*
X17230554Y17804818D01*
X16794661Y17800363D01*
X16791530Y17800500D01*
X16788842Y17800500D01*
X16631158Y17800500D01*
X16616755Y17797636D01*
X16612097Y17796710D01*
X16609551Y17796567D01*
X16607424Y17796350D01*
X16524670Y17780058D01*
X16521909Y17778771D01*
X16514548Y17777306D01*
X16514545Y17777305D01*
X16476506Y17769738D01*
X16476500Y17769737D01*
X16330825Y17709397D01*
X16199711Y17621790D01*
X16199710Y17621788D01*
X16088212Y17510290D01*
X16088210Y17510289D01*
X16000603Y17379175D01*
X15940264Y17233502D01*
X15940261Y17233492D01*
X15909500Y17078841D01*
X500500Y17078841D01*
X500500Y22578842D01*
X17909500Y22578842D01*
X17909500Y22421158D01*
X17915957Y22388697D01*
X17940261Y22266509D01*
X17940264Y22266499D01*
X18000603Y22120826D01*
X18000605Y22120823D01*
X18000606Y22120821D01*
X18088211Y21989711D01*
X18199711Y21878211D01*
X18330821Y21790606D01*
X18330826Y21790604D01*
X18330825Y21790604D01*
X18468425Y21733609D01*
X18476503Y21730263D01*
X18631158Y21699500D01*
X18631160Y21699500D01*
X18788840Y21699500D01*
X18788842Y21699500D01*
X18943497Y21730263D01*
X19022184Y21762857D01*
X19023613Y21763431D01*
X19371669Y21898909D01*
X19488696Y21944460D01*
X19515538Y21949500D01*
X19904462Y21949500D01*
X19931304Y21944460D01*
X19986897Y21922821D01*
X20397128Y21763141D01*
X20476503Y21730263D01*
X20494933Y21726597D01*
X20500511Y21724697D01*
X20500518Y21724695D01*
X20500526Y21724692D01*
X20502435Y21724132D01*
X20502438Y21724132D01*
X20502440Y21724131D01*
X20542558Y21716187D01*
X20582676Y21708242D01*
X20585546Y21708024D01*
X20594390Y21706814D01*
X20631158Y21699500D01*
X20631159Y21699500D01*
X20788840Y21699500D01*
X20788842Y21699500D01*
X20943497Y21730263D01*
X21089179Y21790606D01*
X21220289Y21878211D01*
X21331789Y21989711D01*
X21419394Y22120821D01*
X21479737Y22266503D01*
X21510500Y22421158D01*
X21510500Y22578842D01*
X21479737Y22733497D01*
X21435964Y22839175D01*
X21419396Y22879175D01*
X21419395Y22879177D01*
X21419394Y22879179D01*
X21331789Y23010289D01*
X21220289Y23121789D01*
X21089179Y23209394D01*
X21089175Y23209396D01*
X21089173Y23209397D01*
X21089174Y23209397D01*
X20943501Y23269736D01*
X20943491Y23269739D01*
X20833605Y23291596D01*
X20788842Y23300500D01*
X20631158Y23300500D01*
X20588320Y23291979D01*
X20476508Y23269739D01*
X20476506Y23269738D01*
X20476504Y23269738D01*
X20476503Y23269737D01*
X20397909Y23237183D01*
X20396434Y23236591D01*
X19931300Y23055540D01*
X19904458Y23050500D01*
X19515539Y23050500D01*
X19488697Y23055540D01*
X19024096Y23236384D01*
X19024050Y23236401D01*
X19022848Y23236869D01*
X18943497Y23269737D01*
X18925071Y23273403D01*
X18919507Y23275298D01*
X18919487Y23275305D01*
X18919488Y23275305D01*
X18917565Y23275869D01*
X18917557Y23275871D01*
X18837321Y23291760D01*
X18834437Y23291979D01*
X18825606Y23293188D01*
X18788843Y23300500D01*
X18788842Y23300500D01*
X18631158Y23300500D01*
X18588320Y23291979D01*
X18476508Y23269739D01*
X18476498Y23269736D01*
X18330825Y23209397D01*
X18199711Y23121790D01*
X18199710Y23121788D01*
X18088212Y23010290D01*
X18088210Y23010289D01*
X18000603Y22879175D01*
X17940264Y22733502D01*
X17940261Y22733492D01*
X17932307Y22693502D01*
X17909500Y22578842D01*
X500500Y22578842D01*
X500500Y24735428D01*
X18397500Y24735428D01*
X18397500Y24544573D01*
X18427355Y24356075D01*
X18427358Y24356062D01*
X18486329Y24174568D01*
X18572976Y24004512D01*
X18685153Y23850114D01*
X18685157Y23850109D01*
X18820109Y23715157D01*
X18820112Y23715155D01*
X18820113Y23715154D01*
X18974511Y23602977D01*
X19056474Y23561216D01*
X19144562Y23516332D01*
X19144564Y23516332D01*
X19144567Y23516330D01*
X19326061Y23457359D01*
X19326067Y23457358D01*
X19326072Y23457356D01*
X19420323Y23442428D01*
X19514572Y23427500D01*
X19514574Y23427500D01*
X19705428Y23427500D01*
X19780826Y23439443D01*
X19893928Y23457356D01*
X19893935Y23457359D01*
X19893938Y23457359D01*
X20075432Y23516330D01*
X20075432Y23516331D01*
X20075438Y23516332D01*
X20245488Y23602977D01*
X20399891Y23715157D01*
X20534843Y23850109D01*
X20647023Y24004512D01*
X20733668Y24174562D01*
X20792644Y24356072D01*
X20806911Y24446151D01*
X20836504Y24494441D01*
X20891576Y24507663D01*
X20939867Y24478070D01*
X20953089Y24446150D01*
X20967355Y24356075D01*
X20967358Y24356062D01*
X21026329Y24174568D01*
X21112976Y24004512D01*
X21225153Y23850114D01*
X21225157Y23850109D01*
X21360109Y23715157D01*
X21360112Y23715155D01*
X21360113Y23715154D01*
X21514511Y23602977D01*
X21596474Y23561216D01*
X21684562Y23516332D01*
X21684564Y23516332D01*
X21684567Y23516330D01*
X21866061Y23457359D01*
X21866067Y23457358D01*
X21866072Y23457356D01*
X21960323Y23442428D01*
X22054572Y23427500D01*
X22054574Y23427500D01*
X22245428Y23427500D01*
X22320826Y23439443D01*
X22433928Y23457356D01*
X22433935Y23457359D01*
X22433938Y23457359D01*
X22615432Y23516330D01*
X22615432Y23516331D01*
X22615438Y23516332D01*
X22785488Y23602977D01*
X22939891Y23715157D01*
X23074843Y23850109D01*
X23187023Y24004512D01*
X23273668Y24174562D01*
X23332644Y24356072D01*
X23346911Y24446151D01*
X23376504Y24494441D01*
X23431576Y24507663D01*
X23479867Y24478070D01*
X23493089Y24446150D01*
X23507355Y24356075D01*
X23507358Y24356062D01*
X23566329Y24174568D01*
X23652976Y24004512D01*
X23765153Y23850114D01*
X23765157Y23850109D01*
X23900109Y23715157D01*
X23900112Y23715155D01*
X23900113Y23715154D01*
X24054511Y23602977D01*
X24136474Y23561216D01*
X24224562Y23516332D01*
X24224564Y23516332D01*
X24224567Y23516330D01*
X24406061Y23457359D01*
X24406067Y23457358D01*
X24406072Y23457356D01*
X24500323Y23442428D01*
X24594572Y23427500D01*
X24594574Y23427500D01*
X24785428Y23427500D01*
X24860826Y23439443D01*
X24973928Y23457356D01*
X24973935Y23457359D01*
X24973938Y23457359D01*
X25155432Y23516330D01*
X25155432Y23516331D01*
X25155438Y23516332D01*
X25325488Y23602977D01*
X25479891Y23715157D01*
X25614843Y23850109D01*
X25727023Y24004512D01*
X25813668Y24174562D01*
X25872644Y24356072D01*
X25886911Y24446151D01*
X25916504Y24494441D01*
X25971576Y24507663D01*
X26019867Y24478070D01*
X26033089Y24446150D01*
X26047355Y24356075D01*
X26047358Y24356062D01*
X26106329Y24174568D01*
X26192976Y24004512D01*
X26305153Y23850114D01*
X26305157Y23850109D01*
X26440109Y23715157D01*
X26440112Y23715155D01*
X26440113Y23715154D01*
X26594511Y23602977D01*
X26676474Y23561216D01*
X26764562Y23516332D01*
X26764564Y23516332D01*
X26764567Y23516330D01*
X26946061Y23457359D01*
X26946067Y23457358D01*
X26946072Y23457356D01*
X27040323Y23442428D01*
X27134572Y23427500D01*
X27134574Y23427500D01*
X27325428Y23427500D01*
X27400826Y23439443D01*
X27513928Y23457356D01*
X27513935Y23457359D01*
X27513938Y23457359D01*
X27695432Y23516330D01*
X27695432Y23516331D01*
X27695438Y23516332D01*
X27865488Y23602977D01*
X28019891Y23715157D01*
X28154843Y23850109D01*
X28267023Y24004512D01*
X28353668Y24174562D01*
X28412644Y24356072D01*
X28426911Y24446151D01*
X28456504Y24494441D01*
X28511576Y24507663D01*
X28559867Y24478070D01*
X28573089Y24446150D01*
X28587355Y24356075D01*
X28587358Y24356062D01*
X28646329Y24174568D01*
X28732976Y24004512D01*
X28845153Y23850114D01*
X28845157Y23850109D01*
X28980109Y23715157D01*
X28980112Y23715155D01*
X28980113Y23715154D01*
X29134511Y23602977D01*
X29216474Y23561216D01*
X29304562Y23516332D01*
X29304564Y23516332D01*
X29304567Y23516330D01*
X29486061Y23457359D01*
X29486067Y23457358D01*
X29486072Y23457356D01*
X29580323Y23442428D01*
X29674572Y23427500D01*
X29674574Y23427500D01*
X29865428Y23427500D01*
X29940826Y23439443D01*
X30053928Y23457356D01*
X30053935Y23457359D01*
X30053938Y23457359D01*
X30235432Y23516330D01*
X30235432Y23516331D01*
X30235438Y23516332D01*
X30405488Y23602977D01*
X30559891Y23715157D01*
X30694843Y23850109D01*
X30807023Y24004512D01*
X30893668Y24174562D01*
X30952644Y24356072D01*
X30966911Y24446151D01*
X30996504Y24494441D01*
X31051576Y24507663D01*
X31099867Y24478070D01*
X31113089Y24446150D01*
X31127355Y24356075D01*
X31127358Y24356062D01*
X31186329Y24174568D01*
X31272976Y24004512D01*
X31385153Y23850114D01*
X31385157Y23850109D01*
X31520109Y23715157D01*
X31520112Y23715155D01*
X31520113Y23715154D01*
X31674511Y23602977D01*
X31756474Y23561216D01*
X31844562Y23516332D01*
X31844564Y23516332D01*
X31844567Y23516330D01*
X32026061Y23457359D01*
X32026067Y23457358D01*
X32026072Y23457356D01*
X32120323Y23442428D01*
X32214572Y23427500D01*
X32214574Y23427500D01*
X32405428Y23427500D01*
X32480826Y23439443D01*
X32593928Y23457356D01*
X32593935Y23457359D01*
X32593938Y23457359D01*
X32775432Y23516330D01*
X32775432Y23516331D01*
X32775438Y23516332D01*
X32945488Y23602977D01*
X33099891Y23715157D01*
X33234843Y23850109D01*
X33347023Y24004512D01*
X33433668Y24174562D01*
X33492644Y24356072D01*
X33506911Y24446151D01*
X33536504Y24494441D01*
X33591576Y24507663D01*
X33639867Y24478070D01*
X33653089Y24446150D01*
X33667355Y24356075D01*
X33667358Y24356062D01*
X33726330Y24174565D01*
X33726332Y24174560D01*
X33814197Y24002116D01*
X33815313Y24000088D01*
X34217832Y23180832D01*
X34266493Y23081790D01*
X34291917Y23030045D01*
X34299500Y22997413D01*
X34299500Y22415540D01*
X34294460Y22388699D01*
X34233109Y22231083D01*
X34113610Y21924084D01*
X34113596Y21924049D01*
X34113119Y21922821D01*
X34080263Y21843497D01*
X34076598Y21825074D01*
X34074696Y21819489D01*
X34074695Y21819485D01*
X34074129Y21817557D01*
X34058240Y21737323D01*
X34058021Y21734438D01*
X34056812Y21725610D01*
X34049500Y21688842D01*
X34049500Y21688841D01*
X34049500Y21688839D01*
X34049500Y21531160D01*
X34080261Y21376509D01*
X34080264Y21376499D01*
X34140603Y21230826D01*
X34140605Y21230823D01*
X34140606Y21230821D01*
X34228211Y21099711D01*
X34339711Y20988211D01*
X34470821Y20900606D01*
X34470826Y20900604D01*
X34470825Y20900604D01*
X34616498Y20840265D01*
X34616503Y20840263D01*
X34771158Y20809500D01*
X34771160Y20809500D01*
X34928840Y20809500D01*
X34928842Y20809500D01*
X35083497Y20840263D01*
X35229179Y20900606D01*
X35360289Y20988211D01*
X35471789Y21099711D01*
X35559394Y21230821D01*
X35619737Y21376503D01*
X35650500Y21531158D01*
X35650500Y21688842D01*
X35619737Y21843497D01*
X35587135Y21922205D01*
X35586588Y21923566D01*
X35410450Y22376082D01*
X35405540Y22388697D01*
X35400500Y22415539D01*
X35400500Y22523917D01*
X43809500Y22523917D01*
X43809500Y22376084D01*
X43838340Y22231093D01*
X43838343Y22231083D01*
X43894915Y22094506D01*
X43964938Y21989710D01*
X43977049Y21971584D01*
X44081584Y21867049D01*
X44204505Y21784916D01*
X44341087Y21728342D01*
X44486082Y21699500D01*
X44486084Y21699500D01*
X44633916Y21699500D01*
X44633918Y21699500D01*
X44708112Y21714260D01*
X44714150Y21715202D01*
X44748986Y21719169D01*
X45191129Y21838212D01*
X45223602Y21846955D01*
X45242841Y21849500D01*
X47583641Y21849500D01*
X47604464Y21846510D01*
X47703198Y21817557D01*
X48134603Y21691050D01*
X48136503Y21690263D01*
X48138938Y21689779D01*
X48161304Y21683220D01*
X48179963Y21678176D01*
X48179976Y21678173D01*
X48179990Y21678169D01*
X48180451Y21678055D01*
X48180940Y21677934D01*
X48242448Y21667109D01*
X48242455Y21667110D01*
X48246478Y21666847D01*
X48246472Y21666758D01*
X48259774Y21665744D01*
X48291158Y21659500D01*
X48291160Y21659500D01*
X48448840Y21659500D01*
X48448842Y21659500D01*
X48603497Y21690263D01*
X48749179Y21750606D01*
X48880289Y21838211D01*
X48991789Y21949711D01*
X49079394Y22080821D01*
X49139737Y22226503D01*
X49170500Y22381158D01*
X49170500Y22538842D01*
X49139737Y22693497D01*
X49123167Y22733502D01*
X49079396Y22839175D01*
X49079395Y22839177D01*
X49079394Y22839179D01*
X48991789Y22970289D01*
X48880289Y23081789D01*
X48749179Y23169394D01*
X48749175Y23169396D01*
X48749173Y23169397D01*
X48749174Y23169397D01*
X48603501Y23229736D01*
X48603491Y23229739D01*
X48499925Y23250339D01*
X48448842Y23260500D01*
X48291158Y23260500D01*
X48233098Y23248952D01*
X48158274Y23234068D01*
X48158272Y23234068D01*
X48157119Y23233838D01*
X48148344Y23232378D01*
X48146082Y23231644D01*
X48141792Y23230790D01*
X48136506Y23229738D01*
X48136500Y23229737D01*
X48125569Y23225209D01*
X48120144Y23223207D01*
X47600295Y23054129D01*
X47577407Y23050500D01*
X45242843Y23050500D01*
X45223604Y23053045D01*
X44748989Y23180833D01*
X44734946Y23184374D01*
X44734250Y23184538D01*
X44734225Y23184543D01*
X44678051Y23194107D01*
X44678038Y23194108D01*
X44677113Y23194067D01*
X44659469Y23195418D01*
X44633918Y23200500D01*
X44486082Y23200500D01*
X44444977Y23192324D01*
X44341092Y23171660D01*
X44341082Y23171657D01*
X44204505Y23115085D01*
X44081584Y23032952D01*
X44081583Y23032950D01*
X43977050Y22928417D01*
X43977048Y22928416D01*
X43894915Y22805495D01*
X43838343Y22668918D01*
X43838340Y22668908D01*
X43820425Y22578842D01*
X43812469Y22538841D01*
X43809500Y22523917D01*
X35400500Y22523917D01*
X35400500Y22997413D01*
X35408083Y23030045D01*
X35491831Y23200500D01*
X35884663Y24000049D01*
X35885792Y24002097D01*
X35928745Y24086395D01*
X35973668Y24174562D01*
X36032644Y24356072D01*
X36062500Y24544574D01*
X36062500Y24735426D01*
X36054559Y24785560D01*
X36032644Y24923926D01*
X36032641Y24923939D01*
X35973670Y25105433D01*
X35973668Y25105436D01*
X35973668Y25105438D01*
X35887023Y25275488D01*
X35827747Y25357075D01*
X39349500Y25357075D01*
X39349500Y25142926D01*
X39382999Y24931418D01*
X39383002Y24931405D01*
X39449173Y24727753D01*
X39449175Y24727748D01*
X39546394Y24536947D01*
X39546397Y24536941D01*
X39612361Y24446150D01*
X39672269Y24363694D01*
X39823694Y24212269D01*
X39996943Y24086396D01*
X40187749Y23989175D01*
X40187751Y23989175D01*
X40187752Y23989174D01*
X40391404Y23923003D01*
X40391410Y23923002D01*
X40391415Y23923000D01*
X40532422Y23900667D01*
X40602925Y23889500D01*
X40602926Y23889500D01*
X40817075Y23889500D01*
X40869951Y23897875D01*
X41028585Y23923000D01*
X41028592Y23923003D01*
X41028595Y23923003D01*
X41121055Y23953046D01*
X41232251Y23989175D01*
X41423057Y24086396D01*
X41596306Y24212269D01*
X41747731Y24363694D01*
X41873604Y24536943D01*
X41970825Y24727749D01*
X42034567Y24923926D01*
X42036997Y24931405D01*
X42036997Y24931408D01*
X42037000Y24931415D01*
X42070500Y25142926D01*
X42070500Y25357074D01*
X42037000Y25568585D01*
X42036998Y25568590D01*
X42036997Y25568596D01*
X41970826Y25772248D01*
X41970824Y25772253D01*
X41929936Y25852500D01*
X41873604Y25963057D01*
X41747731Y26136306D01*
X41596306Y26287731D01*
X41596303Y26287734D01*
X41596301Y26287735D01*
X41423059Y26413603D01*
X41423053Y26413606D01*
X41232252Y26510825D01*
X41232247Y26510827D01*
X41028595Y26576998D01*
X41028582Y26577001D01*
X40817075Y26610500D01*
X40817074Y26610500D01*
X40602926Y26610500D01*
X40602925Y26610500D01*
X40391417Y26577001D01*
X40391404Y26576998D01*
X40187752Y26510827D01*
X40187747Y26510825D01*
X39996946Y26413606D01*
X39996940Y26413603D01*
X39823698Y26287735D01*
X39672265Y26136302D01*
X39546397Y25963060D01*
X39546394Y25963054D01*
X39449175Y25772253D01*
X39449173Y25772248D01*
X39383002Y25568596D01*
X39382999Y25568583D01*
X39349500Y25357075D01*
X35827747Y25357075D01*
X35774843Y25429891D01*
X35639891Y25564843D01*
X35639888Y25564846D01*
X35639886Y25564847D01*
X35485488Y25677024D01*
X35315432Y25763671D01*
X35133938Y25822642D01*
X35133925Y25822645D01*
X34945428Y25852500D01*
X34945426Y25852500D01*
X34754574Y25852500D01*
X34754572Y25852500D01*
X34566074Y25822645D01*
X34566061Y25822642D01*
X34384567Y25763671D01*
X34214511Y25677024D01*
X34060113Y25564847D01*
X33925153Y25429887D01*
X33812976Y25275489D01*
X33726329Y25105433D01*
X33667358Y24923939D01*
X33667355Y24923926D01*
X33653089Y24833851D01*
X33623496Y24785560D01*
X33568424Y24772338D01*
X33520133Y24801931D01*
X33506911Y24833851D01*
X33492644Y24923926D01*
X33492641Y24923939D01*
X33433670Y25105433D01*
X33433668Y25105436D01*
X33433668Y25105438D01*
X33388784Y25193526D01*
X33347023Y25275489D01*
X33234846Y25429887D01*
X33234845Y25429888D01*
X33234843Y25429891D01*
X33099891Y25564843D01*
X33099888Y25564846D01*
X33099886Y25564847D01*
X32945488Y25677024D01*
X32775432Y25763671D01*
X32593938Y25822642D01*
X32593925Y25822645D01*
X32405428Y25852500D01*
X32405426Y25852500D01*
X32214574Y25852500D01*
X32214572Y25852500D01*
X32026074Y25822645D01*
X32026061Y25822642D01*
X31844567Y25763671D01*
X31674511Y25677024D01*
X31520113Y25564847D01*
X31385153Y25429887D01*
X31272976Y25275489D01*
X31186329Y25105433D01*
X31127358Y24923939D01*
X31127355Y24923926D01*
X31113089Y24833851D01*
X31083496Y24785560D01*
X31028424Y24772338D01*
X30980133Y24801931D01*
X30966911Y24833851D01*
X30952644Y24923926D01*
X30952641Y24923939D01*
X30893670Y25105433D01*
X30893668Y25105436D01*
X30893668Y25105438D01*
X30848784Y25193526D01*
X30807023Y25275489D01*
X30694846Y25429887D01*
X30694845Y25429888D01*
X30694843Y25429891D01*
X30559891Y25564843D01*
X30559888Y25564846D01*
X30559886Y25564847D01*
X30405488Y25677024D01*
X30235432Y25763671D01*
X30053938Y25822642D01*
X30053925Y25822645D01*
X29865428Y25852500D01*
X29865426Y25852500D01*
X29674574Y25852500D01*
X29674572Y25852500D01*
X29486074Y25822645D01*
X29486061Y25822642D01*
X29304567Y25763671D01*
X29134511Y25677024D01*
X28980113Y25564847D01*
X28845153Y25429887D01*
X28732976Y25275489D01*
X28646329Y25105433D01*
X28587358Y24923939D01*
X28587355Y24923926D01*
X28573089Y24833851D01*
X28543496Y24785560D01*
X28488424Y24772338D01*
X28440133Y24801931D01*
X28426911Y24833851D01*
X28412644Y24923926D01*
X28412641Y24923939D01*
X28353670Y25105433D01*
X28353668Y25105436D01*
X28353668Y25105438D01*
X28308784Y25193526D01*
X28267023Y25275489D01*
X28154846Y25429887D01*
X28154845Y25429888D01*
X28154843Y25429891D01*
X28019891Y25564843D01*
X28019888Y25564846D01*
X28019886Y25564847D01*
X27865488Y25677024D01*
X27695432Y25763671D01*
X27513938Y25822642D01*
X27513925Y25822645D01*
X27325428Y25852500D01*
X27325426Y25852500D01*
X27134574Y25852500D01*
X27134572Y25852500D01*
X26946074Y25822645D01*
X26946061Y25822642D01*
X26764567Y25763671D01*
X26594511Y25677024D01*
X26440113Y25564847D01*
X26305153Y25429887D01*
X26192976Y25275489D01*
X26106329Y25105433D01*
X26047358Y24923939D01*
X26047355Y24923926D01*
X26033089Y24833851D01*
X26003496Y24785560D01*
X25948424Y24772338D01*
X25900133Y24801931D01*
X25886911Y24833851D01*
X25872644Y24923926D01*
X25872641Y24923939D01*
X25813670Y25105433D01*
X25813668Y25105436D01*
X25813668Y25105438D01*
X25768784Y25193526D01*
X25727023Y25275489D01*
X25614846Y25429887D01*
X25614845Y25429888D01*
X25614843Y25429891D01*
X25479891Y25564843D01*
X25479888Y25564846D01*
X25479886Y25564847D01*
X25325488Y25677024D01*
X25155432Y25763671D01*
X24973938Y25822642D01*
X24973925Y25822645D01*
X24785428Y25852500D01*
X24785426Y25852500D01*
X24594574Y25852500D01*
X24594572Y25852500D01*
X24406074Y25822645D01*
X24406061Y25822642D01*
X24224567Y25763671D01*
X24054511Y25677024D01*
X23900113Y25564847D01*
X23765153Y25429887D01*
X23652976Y25275489D01*
X23566329Y25105433D01*
X23507358Y24923939D01*
X23507355Y24923926D01*
X23493089Y24833851D01*
X23463496Y24785560D01*
X23408424Y24772338D01*
X23360133Y24801931D01*
X23346911Y24833851D01*
X23332644Y24923926D01*
X23332641Y24923939D01*
X23273670Y25105433D01*
X23273668Y25105436D01*
X23273668Y25105438D01*
X23228784Y25193526D01*
X23187023Y25275489D01*
X23074846Y25429887D01*
X23074845Y25429888D01*
X23074843Y25429891D01*
X22939891Y25564843D01*
X22939888Y25564846D01*
X22939886Y25564847D01*
X22785488Y25677024D01*
X22615432Y25763671D01*
X22433938Y25822642D01*
X22433925Y25822645D01*
X22245428Y25852500D01*
X22245426Y25852500D01*
X22054574Y25852500D01*
X22054572Y25852500D01*
X21866074Y25822645D01*
X21866061Y25822642D01*
X21684567Y25763671D01*
X21514511Y25677024D01*
X21360113Y25564847D01*
X21225153Y25429887D01*
X21112976Y25275489D01*
X21026329Y25105433D01*
X20967358Y24923939D01*
X20967355Y24923926D01*
X20953089Y24833851D01*
X20923496Y24785560D01*
X20868424Y24772338D01*
X20820133Y24801931D01*
X20806911Y24833851D01*
X20792644Y24923926D01*
X20792641Y24923939D01*
X20733670Y25105433D01*
X20733668Y25105436D01*
X20733668Y25105438D01*
X20688784Y25193526D01*
X20647023Y25275489D01*
X20534846Y25429887D01*
X20534845Y25429888D01*
X20534843Y25429891D01*
X20399891Y25564843D01*
X20399888Y25564846D01*
X20399886Y25564847D01*
X20245488Y25677024D01*
X20075432Y25763671D01*
X19893938Y25822642D01*
X19893925Y25822645D01*
X19705428Y25852500D01*
X19705426Y25852500D01*
X19514574Y25852500D01*
X19514572Y25852500D01*
X19326074Y25822645D01*
X19326061Y25822642D01*
X19144567Y25763671D01*
X18974511Y25677024D01*
X18820113Y25564847D01*
X18685153Y25429887D01*
X18572976Y25275489D01*
X18486329Y25105433D01*
X18427358Y24923939D01*
X18427355Y24923926D01*
X18397500Y24735428D01*
X500500Y24735428D01*
X500500Y28658741D01*
X5549500Y28658741D01*
X5549500Y27341274D01*
X5549501Y27341264D01*
X5552372Y27298908D01*
X5597893Y27115864D01*
X5681699Y26946884D01*
X5681700Y26946883D01*
X5681702Y26946880D01*
X5799869Y26799875D01*
X5799874Y26799870D01*
X5946879Y26681703D01*
X5946884Y26681699D01*
X6115864Y26597893D01*
X6298908Y26552372D01*
X6341263Y26549500D01*
X7658736Y26549501D01*
X7701092Y26552372D01*
X7884136Y26597893D01*
X8053116Y26681699D01*
X8200128Y26799872D01*
X8318301Y26946884D01*
X8402107Y27115864D01*
X8447628Y27298908D01*
X8450500Y27341263D01*
X8450499Y28114158D01*
X9549500Y28114158D01*
X9549500Y27885843D01*
X9585215Y27660343D01*
X9585218Y27660330D01*
X9655766Y27443207D01*
X9729289Y27298908D01*
X9759421Y27239772D01*
X9893621Y27055063D01*
X10055063Y26893621D01*
X10239772Y26759421D01*
X10443201Y26655769D01*
X10443203Y26655769D01*
X10443206Y26655767D01*
X10660329Y26585219D01*
X10660335Y26585218D01*
X10660340Y26585216D01*
X10810675Y26561406D01*
X10885842Y26549500D01*
X10885843Y26549500D01*
X11114158Y26549500D01*
X11170532Y26558429D01*
X11339660Y26585216D01*
X11339667Y26585219D01*
X11339670Y26585219D01*
X11556793Y26655767D01*
X11556793Y26655768D01*
X11556799Y26655769D01*
X11760228Y26759421D01*
X11944937Y26893621D01*
X12106379Y27055063D01*
X12240579Y27239772D01*
X12344231Y27443201D01*
X12414784Y27660340D01*
X12450500Y27885843D01*
X12450500Y28114157D01*
X12414784Y28339660D01*
X12414782Y28339665D01*
X12414781Y28339671D01*
X12344233Y28556794D01*
X12344231Y28556797D01*
X12344231Y28556799D01*
X12270710Y28701093D01*
X12240579Y28760229D01*
X12199710Y28816479D01*
X12199706Y28816484D01*
X12170215Y28857075D01*
X13639500Y28857075D01*
X13639500Y28642926D01*
X13672999Y28431418D01*
X13673002Y28431405D01*
X13739173Y28227753D01*
X13739175Y28227748D01*
X13836394Y28036947D01*
X13836397Y28036941D01*
X13962265Y27863699D01*
X13962269Y27863694D01*
X14113694Y27712269D01*
X14286943Y27586396D01*
X14477749Y27489175D01*
X14477751Y27489175D01*
X14477752Y27489174D01*
X14681404Y27423003D01*
X14681410Y27423002D01*
X14681415Y27423000D01*
X14822422Y27400667D01*
X14892925Y27389500D01*
X14892926Y27389500D01*
X15107075Y27389500D01*
X15159951Y27397875D01*
X15318585Y27423000D01*
X15318592Y27423003D01*
X15318595Y27423003D01*
X15411055Y27453046D01*
X15522251Y27489175D01*
X15713057Y27586396D01*
X15886306Y27712269D01*
X16037731Y27863694D01*
X16163604Y28036943D01*
X16260825Y28227749D01*
X16327000Y28431415D01*
X16360500Y28642926D01*
X16360500Y28658741D01*
X44759500Y28658741D01*
X44759500Y27341274D01*
X44759501Y27341264D01*
X44762372Y27298908D01*
X44807893Y27115864D01*
X44891699Y26946884D01*
X44891700Y26946883D01*
X44891702Y26946880D01*
X45009869Y26799875D01*
X45009874Y26799870D01*
X45156879Y26681703D01*
X45156884Y26681699D01*
X45325864Y26597893D01*
X45508908Y26552372D01*
X45551263Y26549500D01*
X46868736Y26549501D01*
X46911092Y26552372D01*
X47094136Y26597893D01*
X47263116Y26681699D01*
X47410128Y26799872D01*
X47528301Y26946884D01*
X47612107Y27115864D01*
X47657628Y27298908D01*
X47660500Y27341263D01*
X47660499Y28114158D01*
X48759500Y28114158D01*
X48759500Y27885843D01*
X48795215Y27660343D01*
X48795218Y27660330D01*
X48865766Y27443207D01*
X48939289Y27298908D01*
X48969421Y27239772D01*
X49103621Y27055063D01*
X49265063Y26893621D01*
X49449772Y26759421D01*
X49653201Y26655769D01*
X49653203Y26655769D01*
X49653206Y26655767D01*
X49870329Y26585219D01*
X49870335Y26585218D01*
X49870340Y26585216D01*
X50020675Y26561406D01*
X50095842Y26549500D01*
X50095843Y26549500D01*
X50324158Y26549500D01*
X50380532Y26558429D01*
X50549660Y26585216D01*
X50549667Y26585219D01*
X50549670Y26585219D01*
X50766793Y26655767D01*
X50766793Y26655768D01*
X50766799Y26655769D01*
X50970228Y26759421D01*
X51154937Y26893621D01*
X51316379Y27055063D01*
X51450579Y27239772D01*
X51554231Y27443201D01*
X51624784Y27660340D01*
X51660500Y27885843D01*
X51660500Y28114157D01*
X51624784Y28339660D01*
X51624782Y28339665D01*
X51624781Y28339671D01*
X51554233Y28556794D01*
X51554231Y28556797D01*
X51554231Y28556799D01*
X51450579Y28760228D01*
X51316379Y28944937D01*
X51154937Y29106379D01*
X51154934Y29106382D01*
X51154932Y29106383D01*
X50970227Y29240580D01*
X50766793Y29344234D01*
X50549670Y29414782D01*
X50549657Y29414785D01*
X50324158Y29450500D01*
X50324157Y29450500D01*
X50095843Y29450500D01*
X50095842Y29450500D01*
X49870342Y29414785D01*
X49870329Y29414782D01*
X49653206Y29344234D01*
X49449772Y29240580D01*
X49265067Y29106383D01*
X49103617Y28944933D01*
X48969420Y28760228D01*
X48865766Y28556794D01*
X48795218Y28339671D01*
X48795215Y28339658D01*
X48759500Y28114158D01*
X47660499Y28114158D01*
X47660499Y28658736D01*
X47657628Y28701092D01*
X47612107Y28884136D01*
X47528301Y29053116D01*
X47515858Y29068596D01*
X47410130Y29200126D01*
X47410125Y29200131D01*
X47263120Y29318298D01*
X47263117Y29318300D01*
X47263116Y29318301D01*
X47094136Y29402107D01*
X46911092Y29447628D01*
X46911087Y29447629D01*
X46911085Y29447629D01*
X46868740Y29450500D01*
X45551273Y29450500D01*
X45508908Y29447628D01*
X45508907Y29447628D01*
X45325863Y29402107D01*
X45156882Y29318300D01*
X45156879Y29318298D01*
X45009874Y29200131D01*
X45009869Y29200126D01*
X44891702Y29053121D01*
X44891700Y29053118D01*
X44891699Y29053117D01*
X44891699Y29053116D01*
X44807893Y28884136D01*
X44762373Y28701093D01*
X44762371Y28701086D01*
X44759500Y28658741D01*
X16360500Y28658741D01*
X16360500Y28857074D01*
X16327000Y29068585D01*
X16326998Y29068590D01*
X16326997Y29068596D01*
X16260826Y29272248D01*
X16260824Y29272253D01*
X16224149Y29344231D01*
X16163604Y29463057D01*
X16037731Y29636306D01*
X15886306Y29787731D01*
X15886303Y29787734D01*
X15886301Y29787735D01*
X15713059Y29913603D01*
X15713053Y29913606D01*
X15522252Y30010825D01*
X15522247Y30010827D01*
X15318595Y30076998D01*
X15318582Y30077001D01*
X15107075Y30110500D01*
X15107074Y30110500D01*
X14892926Y30110500D01*
X14892925Y30110500D01*
X14681417Y30077001D01*
X14681404Y30076998D01*
X14477752Y30010827D01*
X14477747Y30010825D01*
X14286946Y29913606D01*
X14286940Y29913603D01*
X14113698Y29787735D01*
X13962265Y29636302D01*
X13836397Y29463060D01*
X13836394Y29463054D01*
X13739175Y29272253D01*
X13739173Y29272248D01*
X13673002Y29068596D01*
X13672999Y29068583D01*
X13639500Y28857075D01*
X12170215Y28857075D01*
X12106379Y28944937D01*
X11944937Y29106379D01*
X11944934Y29106382D01*
X11944932Y29106383D01*
X11760227Y29240580D01*
X11556793Y29344234D01*
X11339670Y29414782D01*
X11339657Y29414785D01*
X11114158Y29450500D01*
X11114157Y29450500D01*
X10885843Y29450500D01*
X10885842Y29450500D01*
X10660342Y29414785D01*
X10660329Y29414782D01*
X10443206Y29344234D01*
X10239772Y29240580D01*
X10055067Y29106383D01*
X9893617Y28944933D01*
X9759420Y28760228D01*
X9655766Y28556794D01*
X9585218Y28339671D01*
X9585215Y28339658D01*
X9549500Y28114158D01*
X8450499Y28114158D01*
X8450499Y28658736D01*
X8447628Y28701092D01*
X8402107Y28884136D01*
X8318301Y29053116D01*
X8305858Y29068596D01*
X8200130Y29200126D01*
X8200125Y29200131D01*
X8053120Y29318298D01*
X8053117Y29318300D01*
X8053116Y29318301D01*
X7884136Y29402107D01*
X7701092Y29447628D01*
X7701087Y29447629D01*
X7701085Y29447629D01*
X7658740Y29450500D01*
X6341273Y29450500D01*
X6298908Y29447628D01*
X6298907Y29447628D01*
X6115863Y29402107D01*
X5946882Y29318300D01*
X5946879Y29318298D01*
X5799874Y29200131D01*
X5799869Y29200126D01*
X5681702Y29053121D01*
X5681700Y29053118D01*
X5681699Y29053117D01*
X5681699Y29053116D01*
X5597893Y28884136D01*
X5552373Y28701093D01*
X5552371Y28701086D01*
X5549500Y28658741D01*
X500500Y28658741D01*
X500500Y32995841D01*
X500965Y33004126D01*
X501982Y33013158D01*
X512091Y33102876D01*
X515775Y33119012D01*
X547212Y33208857D01*
X554400Y33223782D01*
X605042Y33304379D01*
X615366Y33317325D01*
X682675Y33384634D01*
X695621Y33394958D01*
X776219Y33445601D01*
X791143Y33452788D01*
X880988Y33484225D01*
X897124Y33487909D01*
X986842Y33498018D01*
X995874Y33499035D01*
X1004159Y33499500D01*
X1065892Y33499500D01*
X62144108Y33499500D01*
X62205841Y33499500D01*
X62214126Y33499035D01*
G37*
%TD.AperFunction*%
%TD*%
%TA.AperFunction,Conductor*%
%TO.N,MTR1*%
G36*
X18791243Y22838230D02*
G01*
X19395820Y22602902D01*
X19402286Y22596709D01*
X19403275Y22592000D01*
X19403275Y22408001D01*
X19399848Y22399728D01*
X19395819Y22397098D01*
X18791243Y22161771D01*
X18782290Y22161963D01*
X18776096Y22168430D01*
X18775530Y22170359D01*
X18729237Y22399728D01*
X18709467Y22497687D01*
X18709467Y22502315D01*
X18728518Y22596709D01*
X18775530Y22829644D01*
X18780526Y22837073D01*
X18789314Y22838796D01*
X18791243Y22838230D01*
G37*
%TD.AperFunction*%
%TD*%
%TA.AperFunction,Conductor*%
%TO.N,/IMU_INT*%
G36*
X31887709Y15588038D02*
G01*
X31893903Y15581571D01*
X31894469Y15579642D01*
X31960532Y15252315D01*
X31960532Y15247685D01*
X31894469Y14920359D01*
X31889473Y14912928D01*
X31880685Y14911205D01*
X31878756Y14911771D01*
X31274181Y15147098D01*
X31267714Y15153292D01*
X31266725Y15158001D01*
X31266725Y15342000D01*
X31270152Y15350273D01*
X31274177Y15352902D01*
X31878756Y15588230D01*
X31887709Y15588038D01*
G37*
%TD.AperFunction*%
%TD*%
%TA.AperFunction,Conductor*%
%TO.N,MISO*%
G36*
X26638428Y12197340D02*
G01*
X26640192Y12196375D01*
X26728348Y12137828D01*
X26918361Y12011633D01*
X26921633Y12008361D01*
X27106374Y11730193D01*
X27108097Y11721405D01*
X27103101Y11713974D01*
X27101337Y11713009D01*
X26507436Y11451911D01*
X26498483Y11451719D01*
X26494454Y11454349D01*
X26364348Y11584455D01*
X26360921Y11592728D01*
X26361908Y11597432D01*
X26623009Y12191340D01*
X26629475Y12197532D01*
X26638428Y12197340D01*
G37*
%TD.AperFunction*%
%TD*%
%TA.AperFunction,Conductor*%
%TO.N,/IMU_INT*%
G36*
X33635165Y18305273D02*
G01*
X33765272Y18175166D01*
X33768699Y18166893D01*
X33767710Y18162184D01*
X33506611Y17568283D01*
X33500144Y17562089D01*
X33491191Y17562281D01*
X33489427Y17563246D01*
X33211259Y17747987D01*
X33207987Y17751259D01*
X33023245Y18029428D01*
X33021522Y18038216D01*
X33026518Y18045647D01*
X33028276Y18046609D01*
X33622186Y18307712D01*
X33631136Y18307903D01*
X33635165Y18305273D01*
G37*
%TD.AperFunction*%
%TD*%
%TA.AperFunction,Conductor*%
%TO.N,/IMU_INT*%
G36*
X34578733Y19437973D02*
G01*
X34578952Y19437831D01*
X34856639Y19253409D01*
X34861635Y19245978D01*
X34861647Y19245918D01*
X34926115Y18917754D01*
X34924347Y18908976D01*
X34917348Y18904118D01*
X34382920Y18776655D01*
X34374078Y18778069D01*
X34371933Y18779763D01*
X34241754Y18909942D01*
X34238327Y18918215D01*
X34240139Y18924469D01*
X34443468Y19245978D01*
X34562592Y19434340D01*
X34569909Y19439499D01*
X34578733Y19437973D01*
G37*
%TD.AperFunction*%
%TD*%
%TA.AperFunction,Conductor*%
%TO.N,MISO*%
G36*
X25691279Y11638179D02*
G01*
X25856867Y11573257D01*
X26202972Y11437557D01*
X26206973Y11434938D01*
X26335450Y11306461D01*
X26338877Y11298188D01*
X26335450Y11289915D01*
X26332639Y11287841D01*
X25813752Y11013898D01*
X25804836Y11013066D01*
X25798580Y11017718D01*
X25789117Y11031795D01*
X25612012Y11295248D01*
X25610241Y11304022D01*
X25675537Y11629589D01*
X25680523Y11637024D01*
X25689309Y11638758D01*
X25691279Y11638179D01*
G37*
%TD.AperFunction*%
%TD*%
%TA.AperFunction,Conductor*%
%TO.N,MTR3*%
G36*
X17296209Y17346538D02*
G01*
X17299720Y17338301D01*
X17299721Y17338181D01*
X17299721Y17154366D01*
X17296860Y17146701D01*
X17007763Y16813333D01*
X16999754Y16809327D01*
X16992439Y16811260D01*
X16713059Y16997298D01*
X16708072Y17004735D01*
X16708062Y17004786D01*
X16703721Y17026934D01*
X16644423Y17329472D01*
X16646195Y17338247D01*
X16653655Y17343202D01*
X16655782Y17343419D01*
X17287902Y17349880D01*
X17296209Y17346538D01*
G37*
%TD.AperFunction*%
%TD*%
%TA.AperFunction,Conductor*%
%TO.N,MTR2*%
G36*
X44630564Y22740995D02*
G01*
X44663910Y22732017D01*
X45145579Y22602331D01*
X45152676Y22596872D01*
X45154236Y22591034D01*
X45154236Y22308967D01*
X45150809Y22300694D01*
X45145578Y22297669D01*
X44630564Y22159006D01*
X44621684Y22160164D01*
X44616224Y22167262D01*
X44616059Y22167961D01*
X44559469Y22447682D01*
X44559469Y22452320D01*
X44616055Y22732020D01*
X44621054Y22739446D01*
X44629842Y22741165D01*
X44630564Y22740995D01*
G37*
%TD.AperFunction*%
%TD*%
%TA.AperFunction,Conductor*%
%TO.N,BAR_CS*%
G36*
X28627594Y7088718D02*
G01*
X28906940Y6902703D01*
X28911927Y6895266D01*
X28911937Y6895215D01*
X28975670Y6570047D01*
X28973898Y6561270D01*
X28966438Y6556315D01*
X28964719Y6556109D01*
X28314168Y6526556D01*
X28305748Y6529604D01*
X28301949Y6537713D01*
X28301937Y6538244D01*
X28301937Y6721659D01*
X28304768Y6729290D01*
X28453989Y6902703D01*
X28612241Y7086612D01*
X28620234Y7090647D01*
X28627594Y7088718D01*
G37*
%TD.AperFunction*%
%TD*%
%TA.AperFunction,Conductor*%
%TO.N,/IMU_INT*%
G36*
X34856507Y24636642D02*
G01*
X35475077Y24222350D01*
X35480044Y24214899D01*
X35479067Y24207470D01*
X34953214Y23137183D01*
X34946490Y23131268D01*
X34942713Y23130642D01*
X34757287Y23130642D01*
X34749014Y23134069D01*
X34746786Y23137183D01*
X34220931Y24207472D01*
X34220359Y24216406D01*
X34224920Y24222349D01*
X34843490Y24636641D01*
X34852270Y24638397D01*
X34856507Y24636642D01*
G37*
%TD.AperFunction*%
%TD*%
%TA.AperFunction,Conductor*%
%TO.N,/IMU_INT*%
G36*
X34950272Y22299848D02*
G01*
X34952902Y22295819D01*
X35188229Y21691244D01*
X35188037Y21682291D01*
X35181570Y21676097D01*
X35179641Y21675531D01*
X34852315Y21609468D01*
X34847685Y21609468D01*
X34520358Y21675531D01*
X34512927Y21680527D01*
X34511204Y21689315D01*
X34511770Y21691244D01*
X34747098Y22295819D01*
X34753292Y22302286D01*
X34758001Y22303275D01*
X34941999Y22303275D01*
X34950272Y22299848D01*
G37*
%TD.AperFunction*%
%TD*%
%TA.AperFunction,Conductor*%
%TO.N,BAR_CS*%
G36*
X24558138Y6726362D02*
G01*
X24566297Y6722673D01*
X24569464Y6714668D01*
X24569464Y6530825D01*
X24566063Y6522578D01*
X24257792Y6212372D01*
X24249530Y6208919D01*
X24243008Y6210881D01*
X23965537Y6395647D01*
X23960550Y6403084D01*
X23960552Y6407695D01*
X24026325Y6733583D01*
X24031321Y6741012D01*
X24038165Y6742960D01*
X24558138Y6726362D01*
G37*
%TD.AperFunction*%
%TD*%
%TA.AperFunction,Conductor*%
%TO.N,MTR1*%
G36*
X20637709Y22838038D02*
G01*
X20643903Y22831571D01*
X20644469Y22829642D01*
X20710532Y22502315D01*
X20710532Y22497685D01*
X20644469Y22170359D01*
X20639473Y22162928D01*
X20630685Y22161205D01*
X20628756Y22161771D01*
X20024181Y22397098D01*
X20017714Y22403292D01*
X20016725Y22408001D01*
X20016725Y22592000D01*
X20020152Y22600273D01*
X20024177Y22602902D01*
X20628756Y22838230D01*
X20637709Y22838038D01*
G37*
%TD.AperFunction*%
%TD*%
%TA.AperFunction,Conductor*%
%TO.N,CLK*%
G36*
X24291243Y7738230D02*
G01*
X24895820Y7502902D01*
X24902286Y7496709D01*
X24903275Y7492000D01*
X24903275Y7308001D01*
X24899848Y7299728D01*
X24895819Y7297098D01*
X24291243Y7061771D01*
X24282290Y7061963D01*
X24276096Y7068430D01*
X24275530Y7070359D01*
X24229237Y7299728D01*
X24209467Y7397687D01*
X24209467Y7402315D01*
X24228518Y7496709D01*
X24275530Y7729644D01*
X24280526Y7737073D01*
X24289314Y7738796D01*
X24291243Y7738230D01*
G37*
%TD.AperFunction*%
%TD*%
%TA.AperFunction,Conductor*%
%TO.N,MTR2*%
G36*
X48298156Y22798513D02*
G01*
X48303973Y22791706D01*
X48304316Y22790402D01*
X48370532Y22462315D01*
X48370532Y22457685D01*
X48304240Y22129226D01*
X48299244Y22121795D01*
X48290456Y22120072D01*
X48289479Y22120314D01*
X47685133Y22297535D01*
X47678158Y22303151D01*
X47676725Y22308762D01*
X47676725Y22591503D01*
X47680152Y22599776D01*
X47684803Y22602628D01*
X48289228Y22799213D01*
X48298156Y22798513D01*
G37*
%TD.AperFunction*%
%TD*%
%TA.AperFunction,Conductor*%
%TO.N,CLK*%
G36*
X27237709Y7738038D02*
G01*
X27243903Y7731571D01*
X27244469Y7729642D01*
X27310532Y7402315D01*
X27310532Y7397685D01*
X27244469Y7070359D01*
X27239473Y7062928D01*
X27230685Y7061205D01*
X27228756Y7061771D01*
X26624181Y7297098D01*
X26617714Y7303292D01*
X26616725Y7308001D01*
X26616725Y7492000D01*
X26620152Y7500273D01*
X26624177Y7502902D01*
X27228756Y7738230D01*
X27237709Y7738038D01*
G37*
%TD.AperFunction*%
%TD*%
%TA.AperFunction,Conductor*%
%TO.N,MTR3*%
G36*
X18387709Y17588038D02*
G01*
X18393903Y17581571D01*
X18394469Y17579642D01*
X18460532Y17252315D01*
X18460532Y17247685D01*
X18394469Y16920359D01*
X18389473Y16912928D01*
X18380685Y16911205D01*
X18378756Y16911771D01*
X17774181Y17147098D01*
X17767714Y17153292D01*
X17766725Y17158001D01*
X17766725Y17342000D01*
X17770152Y17350273D01*
X17774177Y17352902D01*
X18378756Y17588230D01*
X18387709Y17588038D01*
G37*
%TD.AperFunction*%
%TD*%
%TA.AperFunction,Conductor*%
%TO.N,/IMU_INT*%
G36*
X29041243Y15588230D02*
G01*
X29645820Y15352902D01*
X29652286Y15346709D01*
X29653275Y15342000D01*
X29653275Y15158001D01*
X29649848Y15149728D01*
X29645819Y15147098D01*
X29041243Y14911771D01*
X29032290Y14911963D01*
X29026096Y14918430D01*
X29025530Y14920359D01*
X28979237Y15149728D01*
X28959467Y15247687D01*
X28959467Y15252315D01*
X28978518Y15346709D01*
X29025530Y15579644D01*
X29030526Y15587073D01*
X29039314Y15588796D01*
X29041243Y15588230D01*
G37*
%TD.AperFunction*%
%TD*%
M02*
